<svg width="36" height="36" viewBox="0 0 36 36" fill="none" xmlns="http://www.w3.org/2000/svg">
<rect width="36" height="36" rx="18" fill="#171717"/>
<path d="M28.4275 17.1239H28.2131C25.7139 17.1239 23.2147 17.1219 20.7159 17.1266C20.4339 17.127 20.2144 17.0304 20.0336 16.8175C19.8232 16.5699 19.6056 16.3277 19.3881 16.0859C19.0818 15.7456 18.7148 15.7405 18.3932 16.073C18.1311 16.3442 17.8709 16.6172 17.6127 16.8927C17.4668 17.0484 17.2966 17.1258 17.0783 17.1258C13.9805 17.1227 10.8827 17.1239 7.78453 17.1235C7.72741 17.1235 7.67029 17.1184 7.57288 17.1141C7.63978 16.6845 7.68868 16.2671 7.77358 15.8571C7.85261 15.4764 7.97506 15.1055 8.06779 14.7276C8.10613 14.5719 8.18594 14.5324 8.34204 14.5327C11.5768 14.5378 14.8111 14.5335 18.0458 14.5398C18.5078 14.5406 18.8795 14.3982 19.1682 14.03C19.3282 13.8258 19.5074 13.6353 19.6862 13.4463C19.9636 13.1533 20.3349 13.1623 20.6044 13.4635C20.8259 13.7104 21.0516 13.9541 21.2633 14.2096C21.4628 14.4502 21.7136 14.539 22.0187 14.5386C23.8994 14.5347 25.7805 14.539 27.6611 14.5327C27.8332 14.532 27.9033 14.5801 27.9561 14.7479C28.1967 15.5128 28.361 16.2902 28.4267 17.1243L28.4275 17.1239Z" fill="white"/>
<path d="M8.59125 22.5519C8.18711 21.7202 7.90659 20.8599 7.73328 19.9373C7.82522 19.9373 7.90112 19.9373 7.97701 19.9373C10.112 19.9373 12.2469 19.935 14.3819 19.9393C14.8068 19.9401 15.1522 19.7981 15.4237 19.4671C15.5971 19.2562 15.7801 19.0531 15.966 18.8528C16.2395 18.5582 16.6178 18.559 16.8869 18.854C17.115 19.1036 17.3427 19.3544 17.5603 19.6134C17.7555 19.8466 17.9992 19.9389 18.2977 19.9385C21.5457 19.9358 24.7938 19.9369 28.0414 19.9369C28.1185 19.9369 28.1955 19.9369 28.2855 19.9369C28.1235 20.8215 27.8493 21.649 27.4827 22.4487C27.426 22.5727 27.336 22.5523 27.2421 22.5523C25.3935 22.5523 23.5449 22.5523 21.6964 22.5523C20.1342 22.5523 18.572 22.5484 17.0102 22.5558C16.6925 22.5574 16.446 22.4553 16.2445 22.2092C16.0427 21.9627 15.8259 21.7288 15.6127 21.4917C15.3353 21.183 14.9656 21.1701 14.6749 21.4635C14.3913 21.7499 14.1256 22.0559 13.8283 22.3274C13.7082 22.4373 13.5263 22.5402 13.3717 22.5418C11.7841 22.5574 10.1961 22.5512 8.59047 22.5512L8.59125 22.5519Z" fill="white"/>
<path d="M26.3376 11.7309C25.8258 11.7309 25.3137 11.7309 24.802 11.7309C24.6654 11.7309 24.5285 11.7297 24.392 11.7309C24.1502 11.7336 23.9491 11.6436 23.7883 11.4644C23.5496 11.198 23.3157 10.9277 23.0747 10.6632C22.7953 10.3565 22.4229 10.3494 22.1353 10.6444C21.8767 10.9097 21.6193 11.1769 21.3693 11.4503C21.1913 11.6452 20.9839 11.734 20.7155 11.7336C17.1107 11.7289 13.5055 11.7305 9.90069 11.7305C9.82988 11.7305 9.75907 11.7305 9.62683 11.7305C11.4191 9.43902 13.6906 8.01923 16.5301 7.65226C20.5457 7.13348 23.8086 8.56031 26.3595 11.6577C26.352 11.682 26.3446 11.7062 26.3372 11.7305L26.3376 11.7309Z" fill="white"/>
<path d="M10.3949 25.1493C10.8268 25.1121 11.1347 24.8965 11.3878 24.5746C11.5322 24.3911 11.6961 24.2225 11.8526 24.048C12.1198 23.7498 12.5009 23.7405 12.7724 24.0327C12.9935 24.271 13.2118 24.5124 13.4176 24.7635C13.6277 25.0206 13.8859 25.1242 14.2172 25.1239C17.9386 25.1184 21.66 25.1203 25.3818 25.1203C25.4585 25.1203 25.5356 25.1203 25.6123 25.1203C23.8345 27.0319 21.6569 28.1563 19.0697 28.3989C15.6683 28.7177 12.7802 27.5941 10.3949 25.1489V25.1493Z" fill="white"/>
</svg>
