<svg width="30" height="30" viewBox="0 0 30 30" fill="none" xmlns="http://www.w3.org/2000/svg">
<path d="M19.1667 20C18.9457 20 18.7337 19.9122 18.5774 19.7559C18.4211 19.5996 18.3333 19.3877 18.3333 19.1667V11.6667H10.8333C10.6123 11.6667 10.4004 11.5789 10.2441 11.4226C10.0878 11.2663 10 11.0543 10 10.8333C10 10.6123 10.0878 10.4004 10.2441 10.2441C10.4004 10.0878 10.6123 10 10.8333 10H19.1667C19.3877 10 19.5996 10.0878 19.7559 10.2441C19.9122 10.4004 20 10.6123 20 10.8333V19.1667C20 19.3877 19.9122 19.5996 19.7559 19.7559C19.5996 19.9122 19.3877 20 19.1667 20Z" fill="#004737"/>
<path d="M10.8332 20.0002C10.6684 20.0001 10.5074 19.9512 10.3704 19.8597C10.2334 19.7682 10.1267 19.6381 10.0637 19.4858C10.0006 19.3336 9.98411 19.1662 10.0162 19.0046C10.0484 18.843 10.1277 18.6946 10.2442 18.578L18.5752 10.247C18.7319 10.0931 18.9431 10.0073 19.1627 10.0083C19.3823 10.0093 19.5926 10.097 19.7479 10.2523C19.9032 10.4076 19.9909 10.6179 19.9919 10.8375C19.9929 11.0572 19.9071 11.2683 19.7533 11.425L11.4222 19.7561C11.3449 19.8335 11.2531 19.895 11.152 19.9369C11.051 19.9788 10.9426 20.0003 10.8332 20.0002V20.0002Z" fill="#004737"/>
</svg>
