<svg width="77" height="79" viewBox="0 0 77 79" fill="none" xmlns="http://www.w3.org/2000/svg">
<line x1="50.5" y1="12.5" x2="54.5" y2="12.5" stroke="#C5CFC7" stroke-linecap="round"/>
<line x1="63.5" y1="24.5" x2="67.5" y2="24.5" stroke="#C5CFC7" stroke-linecap="round"/>
<line x1="10.5" y1="15.5" x2="14.5" y2="15.5" stroke="#C5CFC7" stroke-linecap="round"/>
<line x1="33.5" y1="17.5" x2="35.5" y2="17.5" stroke="#C5CFC7" stroke-linecap="round"/>
<line x1="60.5" y1="1.5" x2="62.5" y2="1.5" stroke="#C5CFC7" stroke-linecap="round"/>
<line x1="53.5" y1="33.5" x2="55.5" y2="33.5" stroke="#C5CFC7" stroke-linecap="round"/>
<line x1="52.5" y1="10.5" x2="52.5" y2="14.5" stroke="#C5CFC7" stroke-linecap="round"/>
<line x1="65.5" y1="22.5" x2="65.5" y2="26.5" stroke="#C5CFC7" stroke-linecap="round"/>
<line x1="12.5" y1="13.5" x2="12.5" y2="17.5" stroke="#C5CFC7" stroke-linecap="round"/>
<line x1="34.5" y1="16.5" x2="34.5" y2="18.5" stroke="#C5CFC7" stroke-linecap="round"/>
<line x1="61.5" y1="0.5" x2="61.5" y2="2.5" stroke="#C5CFC7" stroke-linecap="round"/>
<line x1="54.5" y1="32.5" x2="54.5" y2="34.5" stroke="#C5CFC7" stroke-linecap="round"/>
<path d="M51.9999 42V56C51.9999 60.9706 47.9705 65 42.9999 65H26.3032" stroke="#7D8F81" stroke-width="2" stroke-linecap="round"/>
<path d="M66 45.5V62.9288C66 66.6607 62.6943 69.5272 59 68.9988V68.9988V75.9988" stroke="#7D8F81" stroke-width="2" stroke-linecap="round"/>
<path d="M23 63.5H22.7731L22.6237 63.6707L16.5 70.6693V64V63.5H16C11.8579 63.5 8.5 60.1421 8.5 56V42C8.5 37.8579 11.8579 34.5 16 34.5H43C47.1421 34.5 50.5 37.8579 50.5 42V56C50.5 60.1421 47.1421 63.5 43 63.5H23Z" fill="#C5CFC7" fill-opacity="0.3" stroke="#C5CFC7"/>
<path d="M53 70.5H53.2269L53.3763 70.6707L59.5 77.6693V71V70.5H60C64.1421 70.5 67.5 67.1421 67.5 63V49C67.5 44.8579 64.1421 41.5 60 41.5H50.5V55C50.5 59.6944 46.6944 63.5 42 63.5H25.5164C25.7737 67.409 29.0259 70.5 33 70.5H53Z" fill="#C5CFC7" fill-opacity="0.3" stroke="#C5CFC7"/>
<circle cx="19" cy="50" r="2" fill="white"/>
<circle cx="30" cy="50" r="2" fill="white"/>
<circle cx="41" cy="50" r="2" fill="white"/>
<circle cx="69" cy="43" r="8" fill="#C4CEC4"/>
<path d="M68.701 44.68C68.431 43.177 70.546 42.781 70.546 41.755C70.546 41.134 70.105 40.684 69.187 40.684C68.566 40.684 67.999 40.954 67.477 41.494L67 41.053C67.594 40.423 68.296 40 69.268 40C70.537 40 71.356 40.657 71.356 41.692C71.356 43.051 69.205 43.33 69.439 44.68H68.701ZM69.088 46.894C68.764 46.894 68.512 46.669 68.512 46.309C68.512 45.949 68.773 45.706 69.088 45.706C69.403 45.706 69.664 45.949 69.664 46.309C69.664 46.669 69.403 46.894 69.088 46.894Z" fill="#6D816D"/>
<path d="M13 24.5H45" stroke="#C5CFC7" stroke-opacity="0.4" stroke-linecap="round"/>
<circle cx="25" cy="5" r="5" fill="#C4CEC4"/>
<path d="M25.2467 6.21673V6.01141C25.2467 5.86945 25.2805 5.73954 25.348 5.62167C25.417 5.50253 25.5169 5.40748 25.6476 5.3365C25.7797 5.26426 25.9398 5.22814 26.1278 5.22814C26.3186 5.22814 26.4787 5.26426 26.6079 5.3365C26.7372 5.40748 26.8348 5.50253 26.9009 5.62167C26.967 5.73954 27 5.86945 27 6.01141V6.21673C27 6.35868 26.9662 6.48923 26.8987 6.60836C26.8326 6.72624 26.7342 6.82129 26.6035 6.89354C26.4743 6.96451 26.3157 7 26.1278 7C25.9369 7 25.7761 6.96451 25.6454 6.89354C25.5147 6.82129 25.4156 6.72624 25.348 6.60836C25.2805 6.48923 25.2467 6.35868 25.2467 6.21673ZM25.696 6.01141V6.21673C25.696 6.3346 25.7283 6.44043 25.793 6.53422C25.8576 6.62674 25.9692 6.673 26.1278 6.673C26.2819 6.673 26.3906 6.62674 26.4537 6.53422C26.5184 6.44043 26.5507 6.3346 26.5507 6.21673V6.01141C26.5507 5.89354 26.5198 5.78834 26.4582 5.69582C26.3965 5.60203 26.2863 5.55513 26.1278 5.55513C25.9736 5.55513 25.8627 5.60203 25.7952 5.69582C25.7291 5.78834 25.696 5.89354 25.696 6.01141ZM23 3.98859V3.78327C23 3.64132 23.0338 3.51141 23.1013 3.39354C23.1703 3.2744 23.2702 3.17934 23.4009 3.10837C23.533 3.03612 23.6931 3 23.8811 3C24.072 3 24.232 3.03612 24.3612 3.10837C24.4905 3.17934 24.5881 3.2744 24.6542 3.39354C24.7203 3.51141 24.7533 3.64132 24.7533 3.78327V3.98859C24.7533 4.13054 24.7195 4.26109 24.652 4.38023C24.5859 4.4981 24.4875 4.59316 24.3568 4.6654C24.2276 4.73638 24.069 4.77186 23.8811 4.77186C23.6902 4.77186 23.5294 4.73638 23.3987 4.6654C23.268 4.59316 23.1689 4.4981 23.1013 4.38023C23.0338 4.26109 23 4.13054 23 3.98859ZM23.4493 3.78327V3.98859C23.4493 4.10646 23.4816 4.21229 23.5463 4.30608C23.6109 4.39861 23.7225 4.44487 23.8811 4.44487C24.0352 4.44487 24.1439 4.39861 24.207 4.30608C24.2717 4.21229 24.304 4.10646 24.304 3.98859V3.78327C24.304 3.6654 24.2731 3.5602 24.2115 3.46768C24.1498 3.37389 24.0396 3.327 23.8811 3.327C23.7269 3.327 23.616 3.37389 23.5485 3.46768C23.4824 3.5602 23.4493 3.6654 23.4493 3.78327ZM23.1674 6.94677L26.2687 3.05323H26.7709L23.6696 6.94677H23.1674Z" fill="#6D816D"/>
<path d="M13 29H45" stroke="#C5CFC7" stroke-opacity="0.4" stroke-linecap="round"/>
<path d="M13 33H45" stroke="#C5CFC7" stroke-opacity="0.4" stroke-linecap="round"/>
<path d="M1 37H11" stroke="#C5CFC7" stroke-opacity="0.4" stroke-linecap="round"/>
<path d="M1 41H8" stroke="#C5CFC7" stroke-opacity="0.4" stroke-linecap="round"/>
<path d="M1 45H8" stroke="#C5CFC7" stroke-opacity="0.4" stroke-linecap="round"/>
<path d="M1 49H8" stroke="#C5CFC7" stroke-opacity="0.4" stroke-linecap="round"/>
<path d="M1 53H8" stroke="#C5CFC7" stroke-opacity="0.4" stroke-linecap="round"/>
<path d="M1 57H8" stroke="#C5CFC7" stroke-opacity="0.4" stroke-linecap="round"/>
<path d="M4.91761 32.5455H3L5.16051 26H7.58949L9.75 32.5455H7.83239L6.40057 27.8026H6.34943L4.91761 32.5455ZM4.55966 29.9631H8.16477V31.2926H4.55966V29.9631Z" fill="#C5CFC7" fill-opacity="0.4"/>
</svg>
