<svg width="80" height="80" viewBox="0 0 80 80" fill="none" xmlns="http://www.w3.org/2000/svg">
<path d="M16.7574 47.0017L39.9929 26.6706L62.2638 47.0049L46.8022 61.5054L33.1847 61.5054L16.7574 47.0017Z" fill="#C5CFC7" fill-opacity="0.4" stroke="#C5CFC7" stroke-linejoin="round"/>
<path d="M16.5 47.5H62.5V76C62.5 77.933 60.933 79.5 59 79.5H20C18.067 79.5 16.5 77.933 16.5 76V47.5Z" fill="#C5CFC7" fill-opacity="0.2" stroke="#C5CFC7" stroke-linejoin="round"/>
<path d="M25 33.5H54C55.933 33.5 57.5 35.067 57.5 37V49.3974C57.5 50.2975 57.1532 51.1629 56.5317 51.814L47.2861 61.5H33.1945L22.635 51.8204C21.9118 51.1575 21.5 50.2215 21.5 49.2404V37C21.5 35.067 23.067 33.5 25 33.5Z" fill="white" stroke="#C5CFC7" stroke-linejoin="round"/>
<path d="M47 62L61 78" stroke="#C5CFC7" stroke-linecap="round" stroke-linejoin="round"/>
<path d="M33 62L18 78" stroke="#C5CFC7" stroke-linecap="round" stroke-linejoin="round"/>
<line x1="7.5" y1="40.5" x2="11.5" y2="40.5" stroke="#C5CFC7" stroke-linecap="round"/>
<line x1="0.5" y1="23.5" x2="4.5" y2="23.5" stroke="#C5CFC7" stroke-linecap="round"/>
<line x1="42.5" y1="19.5" x2="46.5" y2="19.5" stroke="#C5CFC7" stroke-linecap="round"/>
<line x1="34.5" y1="1.5" x2="36.5" y2="1.5" stroke="#C5CFC7" stroke-linecap="round"/>
<line x1="71.5" y1="36.5" x2="73.5" y2="36.5" stroke="#C5CFC7" stroke-linecap="round"/>
<line x1="74.5" y1="8.5" x2="76.5" y2="8.5" stroke="#C5CFC7" stroke-linecap="round"/>
<line x1="9.5" y1="38.5" x2="9.5" y2="42.5" stroke="#C5CFC7" stroke-linecap="round"/>
<line x1="2.5" y1="21.5" x2="2.5" y2="25.5" stroke="#C5CFC7" stroke-linecap="round"/>
<line x1="44.5" y1="17.5" x2="44.5" y2="21.5" stroke="#C5CFC7" stroke-linecap="round"/>
<line x1="35.5" y1="0.5" x2="35.5" y2="2.5" stroke="#C5CFC7" stroke-linecap="round"/>
<line x1="72.5" y1="35.5" x2="72.5" y2="37.5" stroke="#C5CFC7" stroke-linecap="round"/>
<line x1="75.5" y1="7.5" x2="75.5" y2="9.5" stroke="#C5CFC7" stroke-linecap="round"/>
<path d="M28 42.5H44" stroke="#C5CFC7" stroke-linecap="round"/>
<path d="M28 46.5H50" stroke="#C5CFC7" stroke-linecap="round"/>
<path d="M28 50.5H50" stroke="#C5CFC7" stroke-linecap="round"/>
<path d="M28 54.5H50" stroke="#C5CFC7" stroke-linecap="round"/>
<circle cx="58" cy="36" r="11" fill="#9EAD9E"/>
<circle cx="22" cy="17" r="9" fill="#C4CEC4"/>
<circle cx="52.5" cy="6.5" r="4.5" fill="#C4CEC4"/>
<path d="M52.2481 7.36653L52.093 4.79017L52.0698 4H52.9302L52.907 4.79017L52.7519 7.36653H52.2481ZM52.5039 9C52.2248 9 52 8.834 52 8.56839C52 8.30279 52.2248 8.12351 52.5039 8.12351C52.7752 8.12351 53 8.30279 53 8.56839C53 8.834 52.7752 9 52.5039 9Z" fill="white"/>
<path d="M22.2599 19.4077V19.0625C22.2599 18.8239 22.3089 18.6055 22.407 18.4073C22.5071 18.207 22.652 18.0472 22.8416 17.9279C23.0334 17.8065 23.2656 17.7457 23.5384 17.7457C23.8153 17.7457 24.0476 17.8065 24.2351 17.9279C24.4226 18.0472 24.5643 18.207 24.6602 18.4073C24.756 18.6055 24.804 18.8239 24.804 19.0625V19.4077C24.804 19.6463 24.755 19.8658 24.657 20.0661C24.5611 20.2642 24.4183 20.424 24.2287 20.5455C24.0412 20.6648 23.8111 20.7244 23.5384 20.7244C23.2614 20.7244 23.0281 20.6648 22.8384 20.5455C22.6488 20.424 22.505 20.2642 22.407 20.0661C22.3089 19.8658 22.2599 19.6463 22.2599 19.4077ZM22.9119 19.0625V19.4077C22.9119 19.6058 22.9588 19.7837 23.0526 19.9414C23.1463 20.0969 23.3082 20.1747 23.5384 20.1747C23.7621 20.1747 23.9197 20.0969 24.0114 19.9414C24.1051 19.7837 24.152 19.6058 24.152 19.4077V19.0625C24.152 18.8643 24.1072 18.6875 24.0178 18.532C23.9283 18.3743 23.7685 18.2955 23.5384 18.2955C23.3146 18.2955 23.1538 18.3743 23.0558 18.532C22.9599 18.6875 22.9119 18.8643 22.9119 19.0625ZM19 15.6619V15.3168C19 15.0781 19.049 14.8597 19.147 14.6616C19.2472 14.4613 19.392 14.3015 19.5817 14.1822C19.7734 14.0607 20.0057 14 20.2784 14C20.5554 14 20.7876 14.0607 20.9751 14.1822C21.1626 14.3015 21.3043 14.4613 21.4002 14.6616C21.4961 14.8597 21.544 15.0781 21.544 15.3168V15.6619C21.544 15.9006 21.495 16.12 21.397 16.3203C21.3011 16.5185 21.1584 16.6783 20.9687 16.7997C20.7812 16.919 20.5511 16.9787 20.2784 16.9787C20.0014 16.9787 19.7681 16.919 19.5785 16.7997C19.3888 16.6783 19.245 16.5185 19.147 16.3203C19.049 16.12 19 15.9006 19 15.6619ZM19.652 15.3168V15.6619C19.652 15.8601 19.6989 16.038 19.7926 16.1957C19.8864 16.3512 20.0483 16.429 20.2784 16.429C20.5021 16.429 20.6598 16.3512 20.7514 16.1957C20.8452 16.038 20.892 15.8601 20.892 15.6619V15.3168C20.892 15.1186 20.8473 14.9418 20.7578 14.7862C20.6683 14.6286 20.5085 14.5497 20.2784 14.5497C20.0547 14.5497 19.8938 14.6286 19.7958 14.7862C19.6999 14.9418 19.652 15.1186 19.652 15.3168ZM19.2429 20.6349L23.7429 14.0895H24.4716L19.9716 20.6349H19.2429Z" fill="#6D816D"/>
<path d="M74.0549 63.6946L72.1149 65.6346C71.88 65.8612 71.5663 65.9879 71.2399 65.9879C70.9135 65.9879 70.5998 65.8612 70.3649 65.6346C70.2497 65.5198 70.1583 65.3835 70.0959 65.2333C70.0336 65.0831 70.0015 64.9222 70.0015 64.7596C70.0015 64.597 70.0336 64.436 70.0959 64.2858C70.1583 64.1357 70.2497 63.9993 70.3649 63.8846L72.3049 61.9446C72.3991 61.8504 72.452 61.7227 72.452 61.5896C72.452 61.4564 72.3991 61.3287 72.3049 61.2346C72.2108 61.1404 72.0831 61.0875 71.9499 61.0875C71.8168 61.0875 71.6891 61.1404 71.5949 61.2346L69.6549 63.1796C69.2641 63.605 69.0527 64.1649 69.065 64.7424C69.0772 65.32 69.3121 65.8705 69.7205 66.2789C70.129 66.6874 70.6795 66.9223 71.257 66.9345C71.8346 66.9467 72.3945 66.7354 72.8199 66.3446L74.7649 64.4046C74.8591 64.3104 74.912 64.1827 74.912 64.0496C74.912 63.9164 74.8591 63.7887 74.7649 63.6946C74.6708 63.6004 74.5431 63.5475 74.4099 63.5475C74.2768 63.5475 74.1491 63.6004 74.0549 63.6946V63.6946ZM78.3449 57.6546C77.9243 57.2366 77.3554 57.002 76.7624 57.002C76.1694 57.002 75.6005 57.2366 75.1799 57.6546L73.2349 59.5946C73.1883 59.6412 73.1513 59.6965 73.1261 59.7574C73.1009 59.8183 73.0879 59.8836 73.0879 59.9496C73.0879 60.0155 73.1009 60.0808 73.1261 60.1417C73.1513 60.2026 73.1883 60.2579 73.2349 60.3046C73.2815 60.3512 73.3369 60.3882 73.3978 60.4134C73.4587 60.4386 73.524 60.4516 73.5899 60.4516C73.6558 60.4516 73.7211 60.4386 73.782 60.4134C73.843 60.3882 73.8983 60.3512 73.9449 60.3046L75.8849 58.3646C76.1198 58.1379 76.4335 58.0112 76.7599 58.0112C77.0863 58.0112 77.4 58.1379 77.6349 58.3646C77.7501 58.4793 77.8415 58.6157 77.9039 58.7658C77.9663 58.916 77.9984 59.077 77.9984 59.2396C77.9984 59.4022 77.9663 59.5631 77.9039 59.7133C77.8415 59.8635 77.7501 59.9998 77.6349 60.1146L75.6949 62.0546C75.6481 62.101 75.6109 62.1563 75.5855 62.2173C75.5601 62.2782 75.547 62.3436 75.547 62.4096C75.547 62.4756 75.5601 62.5409 75.5855 62.6018C75.6109 62.6628 75.6481 62.7181 75.6949 62.7646C75.7414 62.8114 75.7967 62.8486 75.8576 62.874C75.9186 62.8994 75.9839 62.9125 76.0499 62.9125C76.1159 62.9125 76.1813 62.8994 76.2422 62.874C76.3031 62.8486 76.3584 62.8114 76.4049 62.7646L78.3449 60.8196C78.7629 60.3989 78.9975 59.83 78.9975 59.2371C78.9975 58.6441 78.7629 58.0752 78.3449 57.6546V57.6546ZM72.4149 63.5846C72.4616 63.6309 72.517 63.6676 72.578 63.6924C72.6389 63.7173 72.7041 63.7299 72.7699 63.7296C72.8357 63.7299 72.901 63.7173 72.9619 63.6924C73.0228 63.6676 73.0782 63.6309 73.1249 63.5846L75.5849 61.1246C75.6791 61.0304 75.732 60.9027 75.732 60.7696C75.732 60.6364 75.6791 60.5087 75.5849 60.4146C75.4908 60.3204 75.3631 60.2675 75.2299 60.2675C75.0968 60.2675 74.9691 60.3204 74.8749 60.4146L72.4149 62.8746C72.3681 62.921 72.3309 62.9763 72.3055 63.0373C72.2801 63.0982 72.267 63.1636 72.267 63.2296C72.267 63.2956 72.2801 63.3609 72.3055 63.4218C72.3309 63.4828 72.3681 63.5381 72.4149 63.5846Z" fill="#C5CFC7"/>
<path d="M58.027 40.0284C57.375 40.0284 56.7987 39.9389 56.2979 39.7599C55.7972 39.5831 55.3764 39.3221 55.0355 38.9769C54.6946 38.6317 54.4368 38.2088 54.2621 37.7081C54.0874 37.2074 54 36.6342 54 35.9886C54 35.3643 54.0884 34.8061 54.2653 34.3139C54.4442 33.8217 54.7031 33.4041 55.0419 33.0611C55.3828 32.7159 55.7962 32.4528 56.282 32.2717C56.7699 32.0906 57.3217 32 57.9375 32C58.5362 32 59.0604 32.098 59.5099 32.294C59.9616 32.4879 60.3388 32.7511 60.6413 33.0835C60.946 33.4137 61.174 33.7855 61.3253 34.1989C61.4787 34.6122 61.5554 35.0384 61.5554 35.4773C61.5554 35.7862 61.5405 36.0994 61.5107 36.4169C61.4808 36.7344 61.418 37.0263 61.3221 37.2926C61.2262 37.5568 61.0781 37.7699 60.8778 37.9318C60.6797 38.0937 60.4112 38.1747 60.0724 38.1747C59.9233 38.1747 59.7592 38.1513 59.5803 38.1044C59.4013 38.0575 59.2425 37.9798 59.104 37.8711C58.9656 37.7624 58.8835 37.6165 58.858 37.4332H58.8196C58.7685 37.5568 58.6896 37.674 58.5831 37.7848C58.4787 37.8956 58.3413 37.984 58.1708 38.0501C58.0025 38.1161 57.7969 38.1449 57.554 38.1364C57.277 38.1257 57.033 38.0639 56.8221 37.951C56.6112 37.8359 56.4343 37.6804 56.2915 37.4844C56.1509 37.2862 56.0444 37.0572 55.9719 36.7972C55.9016 36.5352 55.8665 36.2528 55.8665 35.9503C55.8665 35.6626 55.9091 35.3995 55.9943 35.1609C56.0795 34.9222 56.1978 34.7134 56.3491 34.5344C56.5025 34.3555 56.6815 34.2127 56.886 34.1062C57.0927 33.9975 57.3153 33.9304 57.554 33.9048C57.767 33.8835 57.9609 33.8931 58.1357 33.9336C58.3104 33.9719 58.4542 34.0305 58.5671 34.1094C58.68 34.1861 58.7514 34.2713 58.7813 34.3651H58.8196V34.0071H59.4972V36.8963C59.4972 37.0753 59.5472 37.233 59.6474 37.3693C59.7475 37.5057 59.8935 37.5739 60.0852 37.5739C60.3026 37.5739 60.4688 37.4993 60.5838 37.3501C60.701 37.201 60.7809 36.9709 60.8235 36.6598C60.8683 36.3487 60.8906 35.9503 60.8906 35.4645C60.8906 35.179 60.8512 34.8977 60.7724 34.6207C60.6957 34.3416 60.5785 34.0806 60.4208 33.8377C60.2653 33.5948 60.0682 33.3807 59.8295 33.1953C59.5909 33.0099 59.3107 32.8651 58.989 32.7607C58.6694 32.6541 58.3061 32.6009 57.8991 32.6009C57.3984 32.6009 56.9499 32.6786 56.5536 32.8342C56.1594 32.9876 55.8239 33.2124 55.5469 33.5085C55.272 33.8026 55.0621 34.1605 54.9173 34.5824C54.7745 35.0021 54.7031 35.4794 54.7031 36.0142C54.7031 36.5575 54.7745 37.0401 54.9173 37.462C55.0621 37.8839 55.2752 38.2397 55.5565 38.5295C55.8398 38.8192 56.1903 39.0387 56.608 39.1879C57.0256 39.3391 57.5071 39.4148 58.0526 39.4148C58.2869 39.4148 58.5181 39.3924 58.7461 39.3477C58.9741 39.3029 59.1754 39.2539 59.3501 39.2006C59.5249 39.1474 59.6506 39.108 59.7273 39.0824L59.9063 39.6705C59.7741 39.7259 59.6016 39.7813 59.3885 39.8366C59.1776 39.892 58.9517 39.9379 58.7109 39.9741C58.4723 40.0103 58.2443 40.0284 58.027 40.0284ZM57.6562 37.4844C57.9418 37.4844 58.1729 37.4268 58.3498 37.3118C58.5266 37.1967 58.6555 37.0231 58.7365 36.7908C58.8175 36.5586 58.858 36.2656 58.858 35.9119C58.858 35.554 58.8132 35.2749 58.7237 35.0746C58.6342 34.8743 58.5021 34.7337 58.3274 34.6527C58.1527 34.5717 57.9375 34.5312 57.6818 34.5312C57.4389 34.5312 57.2312 34.5952 57.0586 34.723C56.8881 34.8487 56.7571 35.017 56.6655 35.228C56.576 35.4368 56.5312 35.6648 56.5312 35.9119C56.5312 36.1847 56.5675 36.4414 56.6399 36.6822C56.7124 36.9208 56.8306 37.1147 56.9947 37.2638C57.1587 37.4109 57.3793 37.4844 57.6562 37.4844Z" fill="white"/>
</svg>
