<svg width="36" height="36" viewBox="0 0 36 36" fill="none" xmlns="http://www.w3.org/2000/svg">
<path d="M35.4612 22.3544C33.0568 31.9973 23.2891 37.8658 13.644 35.4611C4.00287 33.057 -1.86631 23.2898 0.539192 13.6476C2.94245 4.00361 12.7102 -1.86546 22.3525 0.538642C31.997 2.94274 37.8656 12.711 35.4612 22.3544Z" fill="#FF9500"/>
<path fill-rule="evenodd" clip-rule="evenodd" d="M26.203 15.6484C26.5775 13.1266 24.6713 11.7709 22.0649 10.8666L22.9103 7.45044L20.846 6.93221L20.0228 10.2583C19.4802 10.1221 18.9228 9.99358 18.3689 9.86625L19.1979 6.51822L17.1348 6L16.2887 9.41495C15.8395 9.3119 15.3985 9.21003 14.9705 9.10283L14.9728 9.09217L12.1259 8.37613L11.5767 10.5971C11.5767 10.5971 13.1084 10.9507 13.076 10.9726C13.9121 11.1828 14.0632 11.7401 14.0379 12.182L13.0749 16.0737C13.1325 16.0885 13.2071 16.1098 13.2895 16.143L13.2194 16.1254C13.1716 16.1133 13.122 16.1008 13.0713 16.0885L11.7214 21.5402C11.619 21.7961 11.3598 22.1798 10.7753 22.0342C10.7959 22.0644 9.27482 21.6569 9.27482 21.6569L8.25 24.0372L10.9364 24.7117C11.2365 24.7875 11.5329 24.8653 11.8262 24.9424L11.8272 24.9427C12.0221 24.9939 12.2157 25.0447 12.4081 25.0943L11.5538 28.5496L13.6158 29.0678L14.4619 25.6493C15.0251 25.8033 15.5719 25.9454 16.107 26.0793L15.2638 29.4818L17.3282 30L18.1825 26.5513C21.7027 27.2223 24.3497 26.9517 25.4639 23.7446C26.3617 21.1624 25.4192 19.6728 23.5671 18.7015C24.9159 18.3882 25.9319 17.4945 26.203 15.6484ZM21.4863 22.3107C20.901 24.6798 17.2196 23.7004 15.5352 23.2522C15.3836 23.2119 15.2482 23.1759 15.1327 23.147L16.2663 18.5695C16.407 18.6048 16.5788 18.6436 16.7734 18.6876L16.7735 18.6877C18.5157 19.0814 22.086 19.8884 21.4863 22.3107ZM17.1235 16.5634C18.5279 16.9409 21.5912 17.7643 22.1248 15.6111C22.6697 13.4087 19.6924 12.7448 18.2384 12.4206C18.0748 12.3841 17.9305 12.3519 17.8127 12.3223L16.7849 16.4741C16.882 16.4984 16.9959 16.529 17.1235 16.5634Z" fill="white"/>
</svg>
