<svg width="28" height="28" viewBox="0 0 28 28" fill="none" xmlns="http://www.w3.org/2000/svg">
<path opacity="0.4" d="M23.181 13.8558L14.6055 8.91339C14.1835 8.67014 13.6628 8.67439 13.2448 8.92448L4.99291 13.8613C4.55791 14.1216 4.55684 14.7514 4.99096 15.0131L13.241 19.987C13.6609 20.2402 14.1854 20.2445 14.6094 19.9982L23.183 15.0188C23.6297 14.7593 23.6286 14.1137 23.181 13.8558Z" fill="#B7C6C9"/>
<path d="M22.05 16.8267L23.1826 17.4799C23.6299 17.7378 23.631 18.3831 23.1845 18.6426L14.2665 23.8256C14.0544 23.9489 13.792 23.9468 13.5819 23.8201L4.99078 18.637C4.5569 18.3752 4.55797 17.7456 4.99274 17.4854L6.09295 16.8267" stroke="#7D8F92" stroke-dasharray="1.41 1.41"/>
<path d="M23.181 9.20514L14.6055 4.26275C14.1835 4.01951 13.6628 4.02375 13.2448 4.27384L4.99291 9.21067C4.55791 9.47092 4.55684 10.1008 4.99096 10.3625L13.241 15.3364C13.6609 15.5896 14.1854 15.5938 14.6094 15.3476L23.183 10.3681C23.6297 10.1087 23.6286 9.46311 23.181 9.20514Z" fill="url(#paint0_linear_318_411)" fill-opacity="0.75" stroke="#56F09F"/>
<defs>
<linearGradient id="paint0_linear_318_411" x1="13.4271" y1="8.06103" x2="14.5265" y2="16.2311" gradientUnits="userSpaceOnUse">
<stop offset="0.0352858" stop-color="#56F09F"/>
<stop offset="1" stop-color="#79FA4B" stop-opacity="0"/>
</linearGradient>
</defs>
</svg>
