<svg width="48" height="48" viewBox="0 0 48 48" fill="none" xmlns="http://www.w3.org/2000/svg">
<path d="M24 48C37.2548 48 48 37.2548 48 24C48 10.7452 37.2548 0 24 0C10.7452 0 0 10.7452 0 24C0 37.2548 10.7452 48 24 48Z" fill="#F5FAFE"/>
<path d="M24 41C33.3888 41 41 33.3888 41 24C41 14.6112 33.3888 7 24 7C14.6112 7 7 14.6112 7 24C7 33.3888 14.6112 41 24 41Z" fill="#EBF4FE"/>
<path fill-rule="evenodd" clip-rule="evenodd" d="M20.7464 21.4608C20.7183 21.4317 20.6897 21.4031 20.6607 21.3751C19.3071 20.0688 17.1508 20.1072 15.8445 21.4608L15.7763 21.5315C14.4089 22.9484 14.4089 25.1935 15.7763 26.6104C15.8035 26.6386 15.8313 26.6664 15.8596 26.6937C17.1755 27.9636 19.2717 27.9263 20.5416 26.6104L23.1288 23.9295L20.7464 21.4608ZM27.4584 26.6104C28.7283 27.9263 30.8245 27.9636 32.1405 26.6937C32.1687 26.6664 32.1965 26.6386 32.2237 26.6104C33.5911 25.1935 33.5911 22.9484 32.2237 21.5315L32.1555 21.4608C30.8492 20.1072 28.6929 20.0688 27.3393 21.3751C27.3103 21.4031 27.2817 21.4317 27.2536 21.4608L24.8713 23.9295L27.4584 26.6104ZM24 22.8522L24.9214 21.8974H24.9894L24.9555 21.8622L26.2642 20.506C26.3036 20.4651 26.3437 20.4251 26.3845 20.3856C28.2846 18.552 31.3113 18.6059 33.1449 20.506L33.2132 20.5767C35.0946 22.5263 35.0946 25.6156 33.2132 27.5652C33.1746 27.6052 33.1353 27.6445 33.0953 27.6831C31.2329 29.4804 28.2662 29.4276 26.469 27.5652L24.9555 25.9968L24.9894 25.9616H24.9214L24 25.0067L23.0786 25.9616H23.0106L23.0446 25.9968L21.531 27.5652C19.7338 29.4276 16.7671 29.4804 14.9048 27.6831C14.8648 27.6445 14.8254 27.6052 14.7868 27.5652C12.9054 25.6156 12.9054 22.5263 14.7868 20.5767L14.8551 20.506C16.6887 18.6059 19.7155 18.552 21.6155 20.3856C21.6563 20.4251 21.6964 20.4651 21.7358 20.506L23.0446 21.8622L23.0106 21.8974H23.0786L24 22.8522Z" fill="#2D6BE9"/>
</svg>
