<svg xmlns="http://www.w3.org/2000/svg" viewBox="0 0 340.84 31.76"><defs><style>.cls-1{fill:#004737;}</style></defs><g id="图层_2" data-name="图层 2"><g id="图层_3" data-name="图层 3"><path class="cls-1" d="M7.82.31h4.4a4.3,4.3,0,0,1,.72,0,4.13,4.13,0,0,1,.72,0H18a5.2,5.2,0,0,1,.77,0,5.82,5.82,0,0,1,.81,0h4.35a4.13,4.13,0,0,1,.72,0,4.3,4.3,0,0,1,.72,0h4.4c1,0,1.55.17,1.71.5a3,3,0,0,1,.27,1.48v4.4c0,1-.17,1.55-.49,1.71a3.05,3.05,0,0,1-1.49.27h-4.4a3.44,3.44,0,0,1-.72-.05,3.32,3.32,0,0,1-.72.05H19.59a4.12,4.12,0,0,1-.77-.05,4.59,4.59,0,0,1-.81.05H13.66a3.32,3.32,0,0,1-.72-.05,3.44,3.44,0,0,1-.72.05H8.36V23.09h3.86a3.55,3.55,0,0,1,.67,0,6,6,0,0,1,.77,0H18a5.41,5.41,0,0,1,.77,0,6,6,0,0,1,.81,0h4.35a4.35,4.35,0,0,1,.72,0,4.51,4.51,0,0,1,.72,0h4.4c1,0,1.55.16,1.71.49a3.05,3.05,0,0,1,.27,1.49v4.4c0,1-.17,1.54-.49,1.71a3.05,3.05,0,0,1-1.49.27h-4.4a4.3,4.3,0,0,1-.72-.05,4.13,4.13,0,0,1-.72.05H19.59a5.2,5.2,0,0,1-.77-.05,5.82,5.82,0,0,1-.81.05H13.66a4.13,4.13,0,0,1-.72-.05,4.3,4.3,0,0,1-.72.05H7.82c-1,0-1.55-.17-1.71-.5a2.93,2.93,0,0,1-.27-1.48V25.61H2c-1,0-1.55-.17-1.71-.5A2.93,2.93,0,0,1,0,23.63V8.18c0-1,.17-1.53.49-1.71A3.05,3.05,0,0,1,2,6.2H5.84V2.29c0-1,.16-1.53.49-1.71A3.05,3.05,0,0,1,7.82.31Z"/><path class="cls-1" d="M40.92,0h4.41A5.79,5.79,0,0,1,46,0a6.13,6.13,0,0,1,.72,0h4.41a5.79,5.79,0,0,1,.71,0,6.13,6.13,0,0,1,.72,0H57c1,0,1.54.17,1.7.49A3.05,3.05,0,0,1,59,2v4.4c0,1-.16,1.54-.49,1.71A3,3,0,0,1,57,8.36H52.6a4.3,4.3,0,0,1-.72,0,4.08,4.08,0,0,1-.71,0H46.76a4.3,4.3,0,0,1-.72,0,4.08,4.08,0,0,1-.71,0H41.46c0,.06,0,.09,0,.09l0,.09v1.52l0,.27a.53.53,0,0,1,0,.23v.18s0,0,0,0l0,.09v2.52s0,0,0,0l0,.09s0,.05,0,.05l0,.09V14s0,0,0,0l0,.09v.53s0,0,0,0l0,.09v.13s0,.05,0,.05l0,.09v1.8s0,0,0,0l0,.09v1.84s0,.05,0,.05l0,.09v1l0,.27a.48.48,0,0,1,0,.22s0,.05,0,.05l0,.09v.09s0,0,0,0l0,.09v.59s0,0,0,0l0,.09v.59s0,0,0,0l0,.09v.5s0,0,0,0l0,.09V24s0,0,0,0l0,.09v.4s0,.05,0,.05l0,.09V25s0,.05,0,.05l0,.09v.22s0,.05,0,.05l0,.09v.22s0,.05,0,.05l0,.09V26s0,.05,0,.05l0,.09s0,0,0,0l0,.09v.27s0,.05,0,.05l0,.09v.18s0,0,0,0l0,.09V27s0,0,0,0l0,.09v.14c0,.12,0,.18,0,.18l0,.31v.72s0,.05,0,.05l0,.09v1s0,0,0,0l0,.09v.45c0,.84-.27,1.31-.81,1.39a3,3,0,0,1-.62.14l-.09-.05a.27.27,0,0,1-.18.05h0s0,0,0-.05l-.09.05h-2s-.05,0-.05-.05l-.09.05H35.89s0,0,0-.05l-.09.05s0,0,0-.05l-.09.05h-.27s0,0,0-.05l-.09.05h-.68s0,0,0-.05,0,0,0,.05q-1.26-.14-1.26-1a2.6,2.6,0,0,1-.09-.4h0l0-.09V28.17s0-.05,0-.05l0-.09v0c0-.09,0-.14,0-.14l0-.22V24.89s0-.05,0-.05l0-.09v0s0-.05,0-.05l0-.09v-.13s0-.05,0-.05l0-.09v-.49s0,0,0,0l0-.09V22.55s0,0,0,0l0-.09v-.23s0,0,0,0l0-.09v0s0,0,0,0l0-.09v-.14s0,0,0,0l0-.09v-.14s0,0,0,0l0-.09v-.45s0-.05,0-.05l0-.09s0,0,0,0l0-.09V20.3s0,0,0,0l0-.09v-.31s0-.05,0-.05l0-.09v0s0-.05,0-.05l0-.09v-2.6s0-.05,0-.05l0-.09v-1s0,0,0,0l0-.09v-.36s0-.05,0-.05l0-.09V13s0,0,0,0l0-.09v-.13s0,0,0,0l0-.09V11.23c0-.09,0-.13,0-.13l0-.23V8.67s0-.05,0-.05l0-.08V7.41c0-1,.43-1.53,1.3-1.53,0,0,.09,0,.27,0h.22s.05,0,.05,0l.09,0h.49s0,0,0,0l.09,0H36c.09,0,.13,0,.13,0l.23,0h1.48s0,0,0,0l.09,0h.09s0,0,0,0l.09,0h.18s0,0,0,0l.09,0H39V2c0-1,.16-1.53.49-1.71A3,3,0,0,1,40.92,0Z"/><path class="cls-1" d="M61.86,0h0A0,0,0,0,1,62,0L62,0h0l.27,0a.59.59,0,0,1,.23,0V0l.09,0h1.57a0,0,0,0,1,0,0l.09,0H65a0,0,0,0,1,0,0l.09,0h1.57c.17,0,.38,0,.63,0l.09,0c.81.1,1.22.45,1.22,1a1.29,1.29,0,0,1,.09.36h0l0,.09v.59s0,0,0,0l0,.09V4.45s0,0,0,0l0,.09V5.3a0,0,0,0,1,0,0l0,.09V6s0,0,0,0l0,.09v.9l0,.27a.52.52,0,0,1,0,.23v.13a0,0,0,0,1,0,.05l0,.09V8a0,0,0,0,1,0,0l0,.09s0,0,0,0l0,.09v.49s0,0,0,0l0,.09v.22a.3.3,0,0,1,0,.18.41.41,0,0,1,0,.18v.18a0,0,0,0,1,0,.05l0,.09v.31a0,0,0,0,1,0,0l0,.09s0,0,0,0l0,.09v.59s0,0,0,0l0,.09v.23s0,0,0,0l0,.09v.27h3.86a3.55,3.55,0,0,1,.67,0,6,6,0,0,1,.77,0h4.4a4.51,4.51,0,0,1,.72,0,4.35,4.35,0,0,1,.72,0h3.9V10.47a0,0,0,0,1,0-.05l0-.09V9.79s0,0,0,0l0-.09V9.3a0,0,0,0,1,0-.05l0-.09V8.71a0,0,0,0,1,0,0l0-.09V7.23s0,0,0,0l0-.09v0s0,0,0,0l0-.09V5.53a0,0,0,0,1,0,0l0-.09V4.09a0,0,0,0,1,0,0l0-.09V2.65s0,0,0,0l0-.09v-1C83.73.54,84.15,0,85,0c0,0,0,0,.09,0V0l.09,0H86a0,0,0,0,1,0,0l.09,0h.27a0,0,0,0,1,0,0l.09,0h.63c.09,0,.14,0,.14,0l.22,0H90a0,0,0,0,1,0,0l.09,0a0,0,0,0,1,0,0l.09,0h.09a0,0,0,0,1,0,0l.09,0h.09a0,0,0,0,1,0,0l.09,0c.81.13,1.21.34,1.21.63a3.48,3.48,0,0,1,.18.9v.36s0,0,0,0l0,.09v.54s0,0,0,0l0,.09v.44s0,0,0,0l0,.09v.18s0,0,0,0l0,.09v.59s0,0,0,0l0,.09v.23s0,0,0,0l0,.09v.5s0,0,0,0l0,.09v.76s0,.05,0,.05l0,.09v.18s0,0,0,0l0,.09v.36s0,0,0,0l0,.09s0,0,0,0l0,.23v.45s0,0,0,0l0,.09V8s0,0,0,0l0,.09v.32s0,0,0,0l0,.09v.31s0,0,0,0l0,.09v1.3s0,.05,0,.05l0,.09v1.25s0,0,0,0l0,.09s0,0,0,0l0,.09v.14s0,0,0,0l0,.09v.36s0,.05,0,.05l0,.09s0,0,0,0a0,0,0,0,0,0,0c0,.06,0,.09,0,.09l0,.45v4.67a3.44,3.44,0,0,1,0,.72,3.56,3.56,0,0,1,0,.72v4.4c0,1-.17,1.54-.49,1.71a3.05,3.05,0,0,1-1.49.27h-3.9v3.9c0,1-.17,1.55-.5,1.71a3,3,0,0,1-1.48.27h-4.4a3.32,3.32,0,0,1-.72-.05,3.44,3.44,0,0,1-.72.05H74c-1,0-1.55-.16-1.71-.49A3,3,0,0,1,72,29.78v-4.4c0-1,.16-1.53.49-1.71A3.05,3.05,0,0,1,74,23.4h4.4a4.3,4.3,0,0,1,.72.05,4.13,4.13,0,0,1,.72-.05h3.9V20h-3.9a3.47,3.47,0,0,1-.68-.05,5.7,5.7,0,0,1-.76.05H74a4.13,4.13,0,0,1-.72-.05,4.3,4.3,0,0,1-.72.05h-4.4c-1,0-1.55-.17-1.71-.5a2.93,2.93,0,0,1-.27-1.48V14.2c-.12,0-.18,0-.18,0l-.09,0h-.27s0,0,0,0l-.09,0h0s0,0,0,0l-.09,0h-.5s0,0,0,0l-.09,0H63.21l-.27,0a.44.44,0,0,1-.23,0h-.18s0,0,0,0l-.09,0H62a0,0,0,0,1,0,0l-.09,0h0c-1,0-1.48-.42-1.48-1.26,0,0-.05-.09-.05-.27v-.09a.41.41,0,0,1,.05-.23l-.05-.27V12s0,0,.05,0l-.05-.09v-.18s0,0,.05,0l-.05-.09v-.58s0-.05.05-.05l-.05-.09V8.49s0,0,.05,0l-.05-.09V7.1s0,0,.05,0L60.33,7V5.88s0,0,.05,0l-.05-.09s0,0,.05,0l-.05-.09V5.21s0,0,.05,0l-.05-.09V3.41a.31.31,0,0,1,.05-.18.24.24,0,0,1-.05-.18h.05L60.33,3v0s0,0,.05,0l-.05-.09V1.44s0-.05.05-.05,0,0-.05,0q.14-1.26,1-1.26A2,2,0,0,1,61.86,0Z"/><path class="cls-1" d="M95.41,0h4.41a6.13,6.13,0,0,1,.72,0,5.79,5.79,0,0,1,.71,0h4.36a7.47,7.47,0,0,1,.77,0,8,8,0,0,1,.8,0h4.36a6,6,0,0,1,.72,0A5.85,5.85,0,0,1,113,0h4.4c1,0,1.54.17,1.71.49A3.05,3.05,0,0,1,119.36,2V5.84h3.86c1,0,1.54.16,1.71.49a3.05,3.05,0,0,1,.27,1.49v4.4c0,1-.17,1.54-.5,1.71a3,3,0,0,1-1.48.27h-3.86v3.86c0,1-.17,1.54-.5,1.71a3,3,0,0,1-1.48.27H113a4.13,4.13,0,0,1-.72-.05,4.21,4.21,0,0,1-.72.05h-4.4c-1,0-1.54-.17-1.71-.5a2.93,2.93,0,0,1-.27-1.48v-4.4c0-1,.17-1.53.5-1.71a3,3,0,0,1,1.48-.27h4.4a4.43,4.43,0,0,1,.72,0,4.35,4.35,0,0,1,.72,0h3.86V8.36H113a3.47,3.47,0,0,1-.68,0,5.58,5.58,0,0,1-.76,0h-4.36a5.56,5.56,0,0,1-.8,0,5.2,5.2,0,0,1-.77,0h-3.82v3.86a3.35,3.35,0,0,1,0,.67,6.29,6.29,0,0,1,0,.77v4.4a4.51,4.51,0,0,1,0,.72,4.67,4.67,0,0,1,0,.72v4.35a5.15,5.15,0,0,1,0,.77,6.24,6.24,0,0,1,0,.81v4.35c0,1-.16,1.55-.49,1.71a3,3,0,0,1-1.48.27H95.41c-1,0-1.54-.16-1.7-.49a3,3,0,0,1-.27-1.49V25.43a5.41,5.41,0,0,1,0-.77,6,6,0,0,1,0-.81V19.5a4.67,4.67,0,0,1,0-.72,4.51,4.51,0,0,1,0-.72v-4.4a4.67,4.67,0,0,1,0-.72,4.51,4.51,0,0,1,0-.72V7.82a4.67,4.67,0,0,1,0-.72,4.51,4.51,0,0,1,0-.72V2c0-1,.16-1.53.49-1.71A3,3,0,0,1,95.41,0Z"/><path class="cls-1" d="M133.91,0V0L134,0a0,0,0,0,1,.05,0l.09,0h1.12a0,0,0,0,1,0,0l.09,0h.18a0,0,0,0,1,.05,0l.09,0h2.69a0,0,0,0,1,0,0l.09,0H139q1.71,0,1.71,1.17a1.47,1.47,0,0,1,0,.36v1.3s0,0,0,0l0,.08v.41s0,0,0,0l0,.09V4s0,0,0,0l0,.09v.54s0,0,0,0l0,.09v.31s0,0,0,0l0,.09v.09s0,0,0,0l0,.09v.18s0,0,0,0a.3.3,0,0,1,0,.13h3.86a3.68,3.68,0,0,1,.68,0,5.82,5.82,0,0,1,.76,0h4.4c1,0,1.55.16,1.71.49a3.05,3.05,0,0,1,.27,1.49v4.4c0,1-.17,1.54-.49,1.71a3.05,3.05,0,0,1-1.49.27H146a4.3,4.3,0,0,1-.72,0,4.13,4.13,0,0,1-.72,0h-3.86v1.48s0,0,0,0l0,.09V16s0,0,0,0l0,.09v.86s0,0,0,0l0,.09v.76s0,.05,0,.05l0,.09v1.21s0,.05,0,.05l0,.09v.22s0,.05,0,.05l0,.09v0s0,.05,0,.05l0,.09v.76s0,0,0,0l0,.09v.41s0,0,0,0l0,.09s0,.05,0,.05l0,.09V23s0,.05,0,.05l0,.09v.22h3.86a3.47,3.47,0,0,1,.68.05,5.7,5.7,0,0,1,.76-.05h4.4a4.13,4.13,0,0,1,.72.05,4.3,4.3,0,0,1,.72-.05h4.4c1,0,1.55.17,1.71.5a3,3,0,0,1,.27,1.48v4.4c0,1-.17,1.55-.49,1.71a3.05,3.05,0,0,1-1.49.27h-4.4a3.44,3.44,0,0,1-.72-.05,3.32,3.32,0,0,1-.72.05H146a3.44,3.44,0,0,1-.72-.05,3.32,3.32,0,0,1-.72.05h-4.4c-1,0-1.54-.16-1.71-.49a3,3,0,0,1-.27-1.49v-3.9H138s-.05,0-.05-.05l-.09.05h-.58a0,0,0,0,1-.05-.05l-.09.05h-2.92s0,0,0-.05l-.09.05h-.23s0,0,0-.05a0,0,0,0,0-.05.05q-1.26-.14-1.26-1a2.34,2.34,0,0,1-.09-.54V19.86a0,0,0,0,1,.05-.05l-.05-.09v-.45s0,0,.05,0l-.05-.09V18s0,0,.05,0l-.05-.09v-.36a0,0,0,0,1,.05-.05l-.05-.09v0a0,0,0,0,1,.05-.05l-.05-.08v-1a.41.41,0,0,1,.05-.18.35.35,0,0,1-.05-.18v-.18a0,0,0,0,1,.05,0l-.05-.09v-.45a.41.41,0,0,1,.05-.18.3.3,0,0,1-.05-.18s0,0,.05,0l-.05-.09a0,0,0,0,1,.05,0l-.05-.09V14.2h-3.86c-1,0-1.54-.17-1.71-.5a2.93,2.93,0,0,1-.27-1.48V7.82c0-1,.17-1.53.5-1.71a3,3,0,0,1,1.48-.27h3.86V5.26a0,0,0,0,1,.05,0l-.05-.09V4.4s0,0,.05,0l-.05-.09V2.92s0,0,.05,0l-.05-.09V1.53c0-1,.42-1.49,1.26-1.49C133.64,0,133.73,0,133.91,0Z"/><path class="cls-1" d="M191.37,7.82a3.05,3.05,0,0,0-.27-1.49c-.17-.33-.74-.49-1.71-.49h-3.91V2a3.05,3.05,0,0,0-.27-1.49c-.16-.32-.73-.49-1.7-.49H179.1a6.13,6.13,0,0,0-.72,0,5.79,5.79,0,0,0-.71,0h-4.41a6.13,6.13,0,0,0-.72,0,5.79,5.79,0,0,0-.71,0h-4.41a3,3,0,0,0-1.48.27c-.33.18-.49.75-.49,1.71V5.84h-3.87a3,3,0,0,0-1.48.27c-.33.18-.49.75-.49,1.71v4.4a4.51,4.51,0,0,0,0,.72,4.67,4.67,0,0,0,0,.72v4.4a4.51,4.51,0,0,0,0,.72,4.67,4.67,0,0,0,0,.72v4.4a2.93,2.93,0,0,0,.27,1.48c.16.33.73.5,1.7.5h3.87v3.9a3,3,0,0,0,.27,1.49c.16.33.73.49,1.7.49h4.41a3.28,3.28,0,0,0,.71-.05,3.44,3.44,0,0,0,.72.05h4.41a3.28,3.28,0,0,0,.71-.05,3.44,3.44,0,0,0,.72.05h4.41a3,3,0,0,0,1.48-.27c.33-.16.49-.73.49-1.71v-3.9h3.91a3,3,0,0,0,1.48-.27c.33-.17.5-.74.5-1.71V19.5a4.48,4.48,0,0,0-.05-.72,4.3,4.3,0,0,0,.05-.72v-4.4a4.48,4.48,0,0,0-.05-.72,4.3,4.3,0,0,0,.05-.72Zm-8.31,11a3.47,3.47,0,0,0-.05.68v3.9H179.1a4.3,4.3,0,0,0-.72.05,4.08,4.08,0,0,0-.71-.05h-4.41a5.7,5.7,0,0,0-.76.05,3.35,3.35,0,0,0-.67-.05H168V19.5a4.67,4.67,0,0,0,0-.72,4.51,4.51,0,0,0,0-.72v-4.4a6.29,6.29,0,0,0,0-.77,3.35,3.35,0,0,0,0-.67V8.36h3.87a4.08,4.08,0,0,0,.71,0,4.3,4.3,0,0,0,.72,0h4.41a5.7,5.7,0,0,0,.76,0,3.35,3.35,0,0,0,.67,0H183v3.86a4.3,4.3,0,0,0,.05.72,4.48,4.48,0,0,0-.05.72v4.4A5.7,5.7,0,0,0,183.06,18.82Z"/><path class="cls-1" d="M223.46.16h4.41c1,0,1.54.16,1.7.49a3,3,0,0,1,.27,1.48V6h3.33V2.45c0-1,.16-1.53.49-1.71a3,3,0,0,1,1.48-.27h4.41c1,0,1.54.17,1.7.5a3,3,0,0,1,.27,1.48V6.36h4.36c1,0,1.48.42,1.48,1.25,0,0,0,.09,0,.27V29.63c0,1-.17,1.54-.5,1.7a3,3,0,0,1-1.48.27H241c-1,0-1.54-.16-1.71-.49a3,3,0,0,1-.27-1.48V8.83h-3.37v3.59a2.72,2.72,0,0,1,0,.63,7.57,7.57,0,0,1,0,.81v9.93c0,1-.16,1.54-.49,1.7a3,3,0,0,1-1.48.27H229.3c-1,0-1.54-.16-1.7-.49a3,3,0,0,1-.27-1.48V13.86a6.29,6.29,0,0,1,0-.77,3.29,3.29,0,0,1,0-.67V8.51H224v3.91c0,.39,0,.58,0,.58,0,.33,0,.62,0,.86V29.31c0,1-.16,1.54-.49,1.71a3,3,0,0,1-1.48.27h-4.41c-1,0-1.54-.17-1.7-.5a2.91,2.91,0,0,1-.27-1.48V13.86a7.57,7.57,0,0,1,0-.81,2.72,2.72,0,0,1,0-.63V8c0-1,.16-1.53.49-1.71A3,3,0,0,1,217.62,6h3.87V2.13c0-.95.16-1.52.49-1.7A3,3,0,0,1,223.46.16Z"/><path class="cls-1" d="M280.51,7.82a3.2,3.2,0,0,0-.26-1.49c-.17-.33-.74-.49-1.71-.49h-3.91V2a3.05,3.05,0,0,0-.27-1.49c-.16-.32-.73-.49-1.71-.49h-4.4a6.13,6.13,0,0,0-.72,0,5.85,5.85,0,0,0-.72,0h-4.4a6.13,6.13,0,0,0-.72,0A5.85,5.85,0,0,0,261,0h-4.4a3,3,0,0,0-1.48.27c-.33.18-.5.75-.5,1.71V5.84h-3.86a3,3,0,0,0-1.48.27c-.33.18-.5.75-.5,1.71v4.4a4.3,4.3,0,0,0,.05.72,4.48,4.48,0,0,0-.05.72v4.4a4.3,4.3,0,0,0,.05.72,4.48,4.48,0,0,0-.05.72v4.4a2.93,2.93,0,0,0,.27,1.48c.17.33.74.5,1.71.5h3.86v3.9a3,3,0,0,0,.27,1.49c.17.33.74.49,1.71.49H261a3.32,3.32,0,0,0,.72-.05,3.44,3.44,0,0,0,.72.05h4.4a3.32,3.32,0,0,0,.72-.05,3.44,3.44,0,0,0,.72.05h4.4a3.05,3.05,0,0,0,1.49-.27c.32-.16.49-.73.49-1.71v-3.9h3.91a3,3,0,0,0,1.48-.27c.33-.17.49-.74.49-1.71V19.5a4.67,4.67,0,0,0,0-.72,4.51,4.51,0,0,0,0-.72v-4.4a4.67,4.67,0,0,0,0-.72,4.51,4.51,0,0,0,0-.72Zm-8.31,11a3.68,3.68,0,0,0,0,.68v3.9h-3.91a4.3,4.3,0,0,0-.72.05,4.13,4.13,0,0,0-.72-.05h-4.4a5.7,5.7,0,0,0-.76.05,3.47,3.47,0,0,0-.68-.05h-3.86V19.5a4.67,4.67,0,0,0,0-.72,4.51,4.51,0,0,0,0-.72v-4.4a6.29,6.29,0,0,0,0-.77,3.35,3.35,0,0,0,0-.67V8.36H261a4.13,4.13,0,0,0,.72,0,4.3,4.3,0,0,0,.72,0h4.4a5.86,5.86,0,0,0,.77,0,3.35,3.35,0,0,0,.67,0h3.91v3.86a4.51,4.51,0,0,0,0,.72,4.67,4.67,0,0,0,0,.72v4.4A5.82,5.82,0,0,0,272.2,18.82Z"/><path class="cls-1" d="M289.68,0h4.4a6,6,0,0,1,.72,0,5.85,5.85,0,0,1,.72,0h4.4a6,6,0,0,1,.72,0,5.85,5.85,0,0,1,.72,0h4.4c1,0,1.54.17,1.71.49A3.05,3.05,0,0,1,307.74,2v4.4c0,1-.17,1.54-.5,1.71a3,3,0,0,1-1.48.27h-4.4a4.13,4.13,0,0,1-.72,0,4.21,4.21,0,0,1-.72,0h-4.4a4.13,4.13,0,0,1-.72,0,4.21,4.21,0,0,1-.72,0h-3.86c0,.06,0,.09-.05.09l.05.09v1.52l-.05.27a.52.52,0,0,1,.05.23v.18s0,0-.05,0l.05.09v2.52s0,0-.05,0l.05.09a0,0,0,0,1-.05.05l.05.09V14a0,0,0,0,1-.05,0l.05.09v.53a0,0,0,0,1-.05,0l.05.09v.13a0,0,0,0,1-.05.05l.05.09v1.8s0,0-.05,0l.05.09v1.84a0,0,0,0,1-.05.05l.05.09v1l-.05.27a.48.48,0,0,1,.05.22,0,0,0,0,1-.05.05l.05.09v.09s0,0-.05,0l.05.09v.59s0,0-.05,0l.05.09v.59s0,0-.05,0l.05.09v.5s0,0-.05,0l.05.09V24a0,0,0,0,1-.05,0l.05.09v.4a0,0,0,0,1-.05.05l.05.09V25a0,0,0,0,1-.05.05l.05.09v.22a0,0,0,0,1-.05.05l.05.09v.22a0,0,0,0,1-.05.05l.05.09V26s0,.05-.05.05l.05.09s0,0-.05,0l.05.09v.27a0,0,0,0,1-.05.05l.05.09v.18s0,0-.05,0l.05.09V27s0,0-.05,0l.05.09v.14c0,.12,0,.18-.05.18l.05.31v.72a0,0,0,0,1-.05.05l.05.09v1s0,0-.05,0l.05.09v.45c0,.84-.27,1.31-.81,1.39a3.21,3.21,0,0,1-.63.14l-.09-.05a.24.24,0,0,1-.18.05h0s-.05,0-.05-.05l-.09.05h-2s0,0,0-.05l-.09.05h-1.57s0,0,0-.05l-.09.05s0,0,0-.05l-.09.05h-.27s-.05,0-.05-.05l-.09.05h-.67s-.05,0-.05-.05,0,0,0,.05q-1.26-.14-1.26-1a2.6,2.6,0,0,1-.09-.4h.05l-.05-.09V28.17a0,0,0,0,1,.05-.05l-.05-.09v0c0-.09,0-.14.05-.14l-.05-.22V24.89a0,0,0,0,1,.05-.05l-.05-.09v0a0,0,0,0,1,.05-.05l-.05-.09v-.13a0,0,0,0,1,.05-.05l-.05-.09v-.49a0,0,0,0,1,.05,0l-.05-.09V22.55s0,0,.05,0l-.05-.09v-.23s0,0,.05,0l-.05-.09v0s0,0,.05,0l-.05-.09v-.14s0,0,.05,0l-.05-.09v-.14s0,0,.05,0l-.05-.09v-.45a0,0,0,0,1,.05-.05l-.05-.09s0,0,.05,0l-.05-.09V20.3s0,0,.05,0l-.05-.09v-.31a0,0,0,0,1,.05-.05l-.05-.09v0a0,0,0,0,1,.05-.05l-.05-.09v-2.6a0,0,0,0,1,.05-.05l-.05-.09v-1s0,0,.05,0l-.05-.09v-.36a0,0,0,0,1,.05-.05l-.05-.09V13a0,0,0,0,1,.05,0l-.05-.09v-.13a0,0,0,0,1,.05,0l-.05-.09V11.23c0-.09,0-.13.05-.13l-.05-.23V8.67a0,0,0,0,1,.05-.05l-.05-.08V7.41c0-1,.44-1.53,1.31-1.53,0,0,.08,0,.26,0h.23s0,0,0,0l.09,0h.5s0,0,0,0l.09,0h.36c.09,0,.14,0,.14,0l.22,0h1.48s.05,0,.05,0l.09,0h.09s0,0,0,0l.09,0h.18s0,0,0,0l.09,0h.4V2c0-1,.17-1.53.5-1.71A3,3,0,0,1,289.68,0Z"/><path class="cls-1" d="M316.9,0h4.4A5.85,5.85,0,0,1,322,0a6.13,6.13,0,0,1,.72,0h4.36a7.25,7.25,0,0,1,.76,0c.21,0,.48,0,.81,0H333c1,0,1.54.17,1.71.49A3.07,3.07,0,0,1,335,2v3.9h3.87c1,0,1.54.17,1.71.5a3.15,3.15,0,0,1,.26,1.48v4.4c0,1-.16,1.55-.49,1.71a3,3,0,0,1-1.48.27H335V18.1c0,1-.16,1.55-.49,1.71a3,3,0,0,1-1.48.27h-4.36a5.26,5.26,0,0,1-.76,0,6,6,0,0,1-.81,0h-4.36c-1,0-1.54-.16-1.71-.49a3,3,0,0,1-.27-1.49V13.7c0-1,.17-1.53.5-1.71a3,3,0,0,1,1.48-.27h4.36a5.82,5.82,0,0,1,.81,0,5.05,5.05,0,0,1,.76,0h3.82V8.36h-3.82a5.05,5.05,0,0,1-.76,0,5.82,5.82,0,0,1-.81,0h-4.36a4.3,4.3,0,0,1-.72,0,4.13,4.13,0,0,1-.72,0h-3.86v3.9a3.48,3.48,0,0,1,0,.68,6.12,6.12,0,0,1,0,.76v4.4a4.35,4.35,0,0,1,0,.72,4.67,4.67,0,0,1,0,.72V23.4h3.86a3.47,3.47,0,0,1,.68.05,5.7,5.7,0,0,1,.76-.05h4.36a5.05,5.05,0,0,1,.76.05,5.82,5.82,0,0,1,.81-.05H333a4.3,4.3,0,0,1,.72.05,4.13,4.13,0,0,1,.72-.05h4.4c1,0,1.54.17,1.71.5a3.15,3.15,0,0,1,.26,1.48v4.4c0,1-.16,1.55-.49,1.71a3,3,0,0,1-1.48.27h-4.4a3.32,3.32,0,0,1-.72-.05,3.44,3.44,0,0,1-.72.05h-4.36a4,4,0,0,1-.76-.05,4.59,4.59,0,0,1-.81.05h-4.36a3.44,3.44,0,0,1-.72-.05,3.32,3.32,0,0,1-.72.05h-4.4c-1,0-1.54-.16-1.71-.49a3,3,0,0,1-.27-1.49V25.92h-3.86c-1,0-1.54-.16-1.71-.49a3,3,0,0,1-.27-1.49v-4.4a4.48,4.48,0,0,1,.05-.72,4.13,4.13,0,0,1-.05-.72V13.7a4.48,4.48,0,0,1,.05-.72,4.13,4.13,0,0,1-.05-.72V7.86c0-1,.17-1.53.5-1.71a3,3,0,0,1,1.48-.27h3.86V2c0-1,.17-1.53.5-1.71A3,3,0,0,1,316.9,0Z"/></g></g></svg>