<svg width="48" height="48" viewBox="0 0 48 48" fill="none" xmlns="http://www.w3.org/2000/svg">
<path d="M24 48C37.2548 48 48 37.2548 48 24C48 10.7452 37.2548 0 24 0C10.7452 0 0 10.7452 0 24C0 37.2548 10.7452 48 24 48Z" fill="#E5FDF3"/>
<path d="M24 41C33.3888 41 41 33.3888 41 24C41 14.6112 33.3888 7 24 7C14.6112 7 7 14.6112 7 24C7 33.3888 14.6112 41 24 41Z" fill="#AEF2D7"/>
<path d="M24 16.75L31.25 21L24 25.25L16.75 21L24 16.75Z" stroke="#2D7156" stroke-width="1.5" stroke-linecap="round" stroke-linejoin="round"/>
<path d="M21.25 24L16.75 27L24 31.25L31.25 27L26.6722 24" stroke="#2D7156" stroke-width="1.5" stroke-linecap="round" stroke-linejoin="round"/>
</svg>
