<svg width="72" height="72" viewBox="0 0 72 72" fill="none" xmlns="http://www.w3.org/2000/svg">
<path d="M42.0001 27.6001H30.0001C28.8001 27.6001 27.6001 28.5001 27.6001 30.0001V42.0001C27.6001 43.2001 28.5001 44.4001 30.0001 44.4001H42.0001C43.2001 44.4001 44.4001 43.5001 44.4001 42.0001V30.0001C44.4001 28.8001 43.2001 27.6001 42.0001 27.6001ZM42.0001 48.6001H30.0001C28.8001 48.6001 27.6001 49.5001 27.6001 51.0001V63.0001C27.6001 64.2001 28.5001 65.4001 30.0001 65.4001H42.0001C43.2001 65.4001 44.4001 64.5001 44.4001 63.0001V51.0001C44.4001 49.8001 43.2001 48.6001 42.0001 48.6001ZM21.0001 6.6001H9.0001C7.8001 6.6001 6.6001 7.8001 6.6001 9.0001V21.0001C6.6001 22.2001 7.5001 23.4001 9.0001 23.4001H21.0001C22.2001 23.4001 23.4001 22.5001 23.4001 21.0001V9.0001C23.4001 7.8001 22.2001 6.6001 21.0001 6.6001ZM21.0001 27.6001H9.0001C7.8001 27.6001 6.6001 28.5001 6.6001 30.0001V42.0001C6.6001 43.2001 7.5001 44.4001 9.0001 44.4001H21.0001C22.2001 44.4001 23.4001 43.5001 23.4001 42.0001V30.0001C23.4001 28.8001 22.2001 27.6001 21.0001 27.6001ZM63.0001 6.6001H51.0001C49.8001 6.6001 48.6001 7.5001 48.6001 9.0001V21.0001C48.6001 22.2001 49.5001 23.4001 51.0001 23.4001H63.0001C64.2001 23.4001 65.4001 22.5001 65.4001 21.0001V9.0001C65.4001 7.8001 64.2001 6.6001 63.0001 6.6001ZM42.0001 6.6001H30.0001C28.8001 6.6001 27.6001 7.8001 27.6001 9.0001V21.0001C27.6001 22.2001 28.5001 23.4001 30.0001 23.4001H42.0001C43.2001 23.4001 44.4001 22.5001 44.4001 21.0001V9.0001C44.4001 7.8001 43.2001 6.6001 42.0001 6.6001ZM63.0001 27.6001H51.0001C49.8001 27.6001 48.6001 28.5001 48.6001 30.0001V42.0001C48.6001 43.2001 49.5001 44.4001 51.0001 44.4001H63.0001C64.2001 44.4001 65.4001 43.5001 65.4001 42.0001V30.0001C65.4001 28.8001 64.2001 27.6001 63.0001 27.6001Z" fill="#FFF6CD"/>
</svg>
