<svg width="60" height="60" viewBox="0 0 60 60" fill="none" xmlns="http://www.w3.org/2000/svg">
<path d="M36.0001 21.6001H24.0001C22.8001 21.6001 21.6001 22.5001 21.6001 24.0001V36.0001C21.6001 37.2001 22.5001 38.4001 24.0001 38.4001H36.0001C37.2001 38.4001 38.4001 37.5001 38.4001 36.0001V24.0001C38.4001 22.8001 37.2001 21.6001 36.0001 21.6001ZM36.0001 42.6001H24.0001C22.8001 42.6001 21.6001 43.5001 21.6001 45.0001V57.0001C21.6001 58.2001 22.5001 59.4001 24.0001 59.4001H36.0001C37.2001 59.4001 38.4001 58.5001 38.4001 57.0001V45.0001C38.4001 43.8001 37.2001 42.6001 36.0001 42.6001ZM15.0001 0.600098H3.0001C1.8001 0.600098 0.600098 1.8001 0.600098 3.0001V15.0001C0.600098 16.2001 1.5001 17.4001 3.0001 17.4001H15.0001C16.2001 17.4001 17.4001 16.5001 17.4001 15.0001V3.0001C17.4001 1.8001 16.2001 0.600098 15.0001 0.600098ZM15.0001 21.6001H3.0001C1.8001 21.6001 0.600098 22.5001 0.600098 24.0001V36.0001C0.600098 37.2001 1.5001 38.4001 3.0001 38.4001H15.0001C16.2001 38.4001 17.4001 37.5001 17.4001 36.0001V24.0001C17.4001 22.8001 16.2001 21.6001 15.0001 21.6001ZM57.0001 0.600098H45.0001C43.8001 0.600098 42.6001 1.5001 42.6001 3.0001V15.0001C42.6001 16.2001 43.5001 17.4001 45.0001 17.4001H57.0001C58.2001 17.4001 59.4001 16.5001 59.4001 15.0001V3.0001C59.4001 1.8001 58.2001 0.600098 57.0001 0.600098ZM36.0001 0.600098H24.0001C22.8001 0.600098 21.6001 1.8001 21.6001 3.0001V15.0001C21.6001 16.2001 22.5001 17.4001 24.0001 17.4001H36.0001C37.2001 17.4001 38.4001 16.5001 38.4001 15.0001V3.0001C38.4001 1.8001 37.2001 0.600098 36.0001 0.600098ZM57.0001 21.6001H45.0001C43.8001 21.6001 42.6001 22.5001 42.6001 24.0001V36.0001C42.6001 37.2001 43.5001 38.4001 45.0001 38.4001H57.0001C58.2001 38.4001 59.4001 37.5001 59.4001 36.0001V24.0001C59.4001 22.8001 58.2001 21.6001 57.0001 21.6001Z" fill="#FFF6CD"/>
</svg>
