<svg width="16" height="16" viewBox="0 0 16 16" fill="none" xmlns="http://www.w3.org/2000/svg">
<path d="M13.5447 2.77071C12.5249 2.30279 11.4313 1.95804 10.2879 1.76059C10.2671 1.75678 10.2463 1.76631 10.2356 1.78535C10.0949 2.0355 9.93915 2.36183 9.83006 2.61832C8.60027 2.43421 7.37679 2.43421 6.17221 2.61832C6.0631 2.35613 5.90166 2.0355 5.76038 1.78535C5.74966 1.76694 5.72886 1.75742 5.70803 1.76059C4.56527 1.95741 3.47171 2.30216 2.45129 2.77071C2.44246 2.77452 2.43488 2.78087 2.42986 2.78912C0.355594 5.88803 -0.212633 8.91076 0.0661201 11.896C0.0673814 11.9106 0.0755799 11.9246 0.086932 11.9335C1.45547 12.9385 2.78114 13.5486 4.08219 13.9531C4.10301 13.9594 4.12507 13.9518 4.13832 13.9347C4.44608 13.5144 4.72043 13.0712 4.95565 12.6052C4.96953 12.5779 4.95628 12.5455 4.92791 12.5347C4.49275 12.3696 4.0784 12.1684 3.67982 11.9398C3.64829 11.9214 3.64577 11.8763 3.67477 11.8547C3.75865 11.7919 3.84255 11.7265 3.92264 11.6605C3.93713 11.6484 3.95732 11.6459 3.97435 11.6535C6.59286 12.849 9.4277 12.849 12.0153 11.6535C12.0323 11.6452 12.0525 11.6478 12.0677 11.6598C12.1478 11.7259 12.2316 11.7919 12.3161 11.8547C12.3451 11.8763 12.3433 11.9214 12.3117 11.9398C11.9131 12.1728 11.4988 12.3696 11.063 12.5341C11.0346 12.5449 11.022 12.5779 11.0359 12.6052C11.2762 13.0706 11.5505 13.5137 11.8526 13.934C11.8652 13.9518 11.8879 13.9594 11.9087 13.9531C13.2161 13.5486 14.5417 12.9385 15.9103 11.9335C15.9223 11.9246 15.9298 11.9113 15.9311 11.8967C16.2647 8.44537 15.3723 5.44742 13.5655 2.78975C13.5611 2.78087 13.5535 2.77452 13.5447 2.77071ZM5.34668 10.0783C4.55833 10.0783 3.90876 9.35455 3.90876 8.46569C3.90876 7.57684 4.54574 6.85307 5.34668 6.85307C6.15392 6.85307 6.79721 7.58319 6.78459 8.46569C6.78459 9.35455 6.14761 10.0783 5.34668 10.0783ZM10.6632 10.0783C9.87484 10.0783 9.22526 9.35455 9.22526 8.46569C9.22526 7.57684 9.86222 6.85307 10.6632 6.85307C11.4704 6.85307 12.1137 7.58319 12.1011 8.46569C12.1011 9.35455 11.4704 10.0783 10.6632 10.0783Z" fill="#004737"/>
</svg>
