<svg width="48" height="48" viewBox="0 0 48 48" fill="none" xmlns="http://www.w3.org/2000/svg">
<path d="M24 48C37.2548 48 48 37.2548 48 24C48 10.7452 37.2548 0 24 0C10.7452 0 0 10.7452 0 24C0 37.2548 10.7452 48 24 48Z" fill="#FEF6F4"/>
<path d="M24 41C33.3888 41 41 33.3888 41 24C41 14.6112 33.3888 7 24 7C14.6112 7 7 14.6112 7 24C7 33.3888 14.6112 41 24 41Z" fill="#FFE9E9"/>
<path d="M27.75 20.75L31.25 24L27.75 27.25M20.25 20.75L16.75 24L20.25 27.25M25.25 17.75L22.75 30.25" stroke="#D73E3E" stroke-width="1.5" stroke-linecap="round" stroke-linejoin="round"/>
</svg>
