<svg width="36" height="36" viewBox="0 0 36 36" fill="none" xmlns="http://www.w3.org/2000/svg">
<g clip-path="url(#clip0_1408_1060)">
<path d="M36 18C36 8.05887 27.9411 0 18 0C8.05887 0 0 8.05887 0 18C0 26.9842 6.5823 34.431 15.1875 35.7813V23.2031H10.6172V18H15.1875V14.0344C15.1875 9.52313 17.8748 7.03125 21.9864 7.03125C23.9551 7.03125 26.0156 7.38281 26.0156 7.38281V11.8125H23.7459C21.51 11.8125 20.8125 13.2001 20.8125 14.625V18H25.8047L25.0066 23.2031H20.8125V35.7813C29.4177 34.431 36 26.9842 36 18Z" fill="#1877F2"/>
<path d="M25.0066 23.2031L25.8047 18H20.8125V14.625C20.8125 13.2015 21.51 11.8125 23.7459 11.8125H26.0156V7.38281C26.0156 7.38281 23.9558 7.03125 21.9864 7.03125C17.8748 7.03125 15.1875 9.52313 15.1875 14.0344V18H10.6172V23.2031H15.1875V35.7813C17.0512 36.0729 18.9488 36.0729 20.8125 35.7813V23.2031H25.0066Z" fill="white"/>
</g>
<defs>
<clipPath id="clip0_1408_1060">
<rect width="36" height="36" fill="white"/>
</clipPath>
</defs>
</svg>
