<svg width="36" height="36" viewBox="0 0 36 36" fill="none" xmlns="http://www.w3.org/2000/svg">
<g clip-path="url(#clip0_817_842)">
<mask id="mask0_817_842" style="mask-type:alpha" maskUnits="userSpaceOnUse" x="0" y="0" width="36" height="36">
<path fill-rule="evenodd" clip-rule="evenodd" d="M0 0H36V36H0V0Z" fill="white"/>
</mask>
<g mask="url(#mask0_817_842)">
<path fill-rule="evenodd" clip-rule="evenodd" d="M18 35.9998C8.1 35.9998 0 27.8998 0 17.9098C0.09 8.00977 8.1 -0.0902337 18.09 -0.000233741C27.99 0.0897663 36 8.09977 36 18.1798C35.91 27.9898 27.9 35.9998 18 35.9998Z" fill="#0090FF"/>
<path fill-rule="evenodd" clip-rule="evenodd" d="M19.71 15.8402L19.17 18.7202L24.3 19.4402L23.94 20.7902L18.9 20.0702C18.54 21.2402 18.36 22.5002 17.91 23.5802C17.46 24.8402 17.01 26.1002 16.47 27.2702C15.75 28.8002 14.49 29.8802 12.78 30.1502C11.79 30.3302 10.71 30.2402 9.89999 29.6102C9.62999 29.4302 9.35999 29.0702 9.35999 28.8002C9.35999 28.4402 9.53999 27.9902 9.80999 27.8102C9.98999 27.7202 10.44 27.8102 10.71 27.9002C10.98 28.1702 11.25 28.5302 11.43 28.8902C11.97 29.6102 12.69 29.7002 13.41 29.1602C14.22 28.4402 14.67 27.4502 14.94 26.4602C15.48 24.3002 16.02 22.2302 16.47 20.0702V19.7102L11.7 18.9902L11.88 17.6402L16.83 18.3602L17.46 15.5702L12.33 14.7602L12.51 13.3202L17.82 14.0402C18 13.5002 18.09 13.0502 18.27 12.6002C18.72 10.9802 19.17 9.36024 20.25 7.92024C21.33 6.48024 22.59 5.58024 24.48 5.67024C25.29 5.67024 26.1 5.94024 26.64 6.57024C26.73 6.66024 26.91 6.84024 26.91 7.02024C26.91 7.38024 26.91 7.83024 26.64 8.10024C26.28 8.37024 25.83 8.28024 25.47 7.92024C25.2 7.65024 25.02 7.38024 24.75 7.11024C24.21 6.39024 23.4 6.30024 22.77 6.93024C22.32 7.38024 21.87 8.01024 21.6 8.64024C20.97 10.5302 20.52 12.5102 19.89 14.4902L24.84 15.2102L24.48 16.5602L19.71 15.8402Z" fill="white"/>
</g>
</g>
<defs>
<clipPath id="clip0_817_842">
<rect width="36" height="36" fill="white"/>
</clipPath>
</defs>
</svg>
