<svg width="30" height="30" viewBox="0 0 30 30" fill="none" xmlns="http://www.w3.org/2000/svg">
<g style="mix-blend-mode:multiply">
<path d="M10.4019 24.8299C12.2084 24.8299 13.6729 23.3654 13.6729 21.5589C13.6729 19.7523 12.2084 18.2878 10.4019 18.2878C8.59535 18.2878 7.13086 19.7523 7.13086 21.5589C7.13086 23.3654 8.59535 24.8299 10.4019 24.8299Z" stroke="#CDCCBB" stroke-dasharray="1.41 1.41"/>
</g>
<g style="mix-blend-mode:multiply">
<path d="M11.2337 15.4673C14.1241 15.4673 16.4673 13.1241 16.4673 10.2337C16.4673 7.34319 14.1241 5 11.2337 5C8.34319 5 6 7.34319 6 10.2337C6 13.1241 8.34319 15.4673 11.2337 15.4673Z" fill="#F5F4EB"/>
</g>
<g style="mix-blend-mode:multiply">
<path d="M16.4678 22.9961C20.4421 22.9961 23.664 19.7742 23.664 15.7998C23.664 11.8254 20.4421 8.60352 16.4678 8.60352C12.4934 8.60352 9.27148 11.8254 9.27148 15.7998C9.27148 19.7742 12.4934 22.9961 16.4678 22.9961Z" fill="url(#paint0_linear_318_424)" fill-opacity="0.5"/>
<path d="M16.4678 22.9961C20.4421 22.9961 23.664 19.7742 23.664 15.7998C23.664 11.8254 20.4421 8.60352 16.4678 8.60352C12.4934 8.60352 9.27148 11.8254 9.27148 15.7998C9.27148 19.7742 12.4934 22.9961 16.4678 22.9961Z" stroke="#56F09F"/>
</g>
<defs>
<linearGradient id="paint0_linear_318_424" x1="15.98" y1="13.6832" x2="18.1673" y2="23.2626" gradientUnits="userSpaceOnUse">
<stop offset="0.0352858" stop-color="#56F09F"/>
<stop offset="1" stop-color="#79FA4B" stop-opacity="0"/>
</linearGradient>
</defs>
</svg>
