<svg width="36" height="36" viewBox="0 0 36 36" fill="none" xmlns="http://www.w3.org/2000/svg">
<g clip-path="url(#clip0_874_1194)">
<path d="M35.6489 18.4149C35.6489 17.1913 35.5497 15.9611 35.338 14.7573H18.3599V21.6888H28.0825C27.679 23.9243 26.3827 25.9019 24.4844 27.1586V31.6561H30.2849C33.6911 28.5211 35.6489 23.8913 35.6489 18.4149Z" fill="#4285F4"/>
<path d="M18.3602 36.0015C23.2148 36.0015 27.3089 34.4075 30.2918 31.6561L24.4913 27.1586C22.8775 28.2565 20.7941 28.8782 18.3668 28.8782C13.6708 28.8782 9.6892 25.7101 8.26057 21.4507H2.2749V26.0871C5.33057 32.1654 11.5543 36.0015 18.3602 36.0015Z" fill="#34A853"/>
<path d="M8.25367 21.4506C7.49968 19.215 7.49968 16.7943 8.25367 14.5588V9.92236H2.27462C-0.278388 15.0085 -0.278388 21.0008 2.27462 26.087L8.25367 21.4506Z" fill="#FBBC04"/>
<path d="M18.3601 7.12449C20.9264 7.08481 23.4066 8.05045 25.2652 9.823L30.4042 4.68393C27.1502 1.62826 22.8312 -0.051699 18.3601 0.001213C11.5543 0.001213 5.33057 3.83733 2.2749 9.92221L8.25396 14.5586C9.67597 10.2926 13.6642 7.12449 18.3601 7.12449Z" fill="#EA4335"/>
</g>
<defs>
<clipPath id="clip0_874_1194">
<rect width="36" height="36" fill="white"/>
</clipPath>
</defs>
</svg>
