<svg width="40" height="40" viewBox="0 0 40 40" fill="none" xmlns="http://www.w3.org/2000/svg">
<rect width="40" height="40" rx="8" fill="#C7DBFE"/>
<mask id="path-2-inside-1_51_416" fill="white">
<path fill-rule="evenodd" clip-rule="evenodd" d="M19.0695 9H13.7053L11.1779 17.2139H8.67633L7 22.5781H9.52741L7 30.7922H12.3642L14.8917 22.5781H16.5681L14.0407 30.7922H19.4049L20.7674 26.3642H26.0887L27.4512 30.7922H32.8154L31.453 26.3642H33.3932L31.5 21H29.8024L26.1102 9.00018L26.1102 9H26.1101H20.746H20.7459L20.7459 9.00018L18.2186 17.2139H16.5422L19.0695 9ZM24.4382 21L23.4281 17.7171L22.4179 21H24.4382Z"/>
</mask>
<path fill-rule="evenodd" clip-rule="evenodd" d="M19.0695 9H13.7053L11.1779 17.2139H8.67633L7 22.5781H9.52741L7 30.7922H12.3642L14.8917 22.5781H16.5681L14.0407 30.7922H19.4049L20.7674 26.3642H26.0887L27.4512 30.7922H32.8154L31.453 26.3642H33.3932L31.5 21H29.8024L26.1102 9.00018L26.1102 9H26.1101H20.746H20.7459L20.7459 9.00018L18.2186 17.2139H16.5422L19.0695 9ZM24.4382 21L23.4281 17.7171L22.4179 21H24.4382Z" fill="url(#paint0_linear_51_416)"/>
<path d="M13.7053 9V8H12.9667L12.7495 8.70591L13.7053 9ZM19.0695 9L20.0253 9.29409L20.4235 8H19.0695V9ZM11.1779 17.2139V18.2139H11.9165L12.1337 17.508L11.1779 17.2139ZM8.67633 17.2139V16.2139H7.94113L7.72185 16.9156L8.67633 17.2139ZM7 22.5781L6.04552 22.2799L5.63981 23.5781H7V22.5781ZM9.52741 22.5781L10.4832 22.8722L10.8814 21.5781H9.52741V22.5781ZM7 30.7922L6.04422 30.4981L5.64604 31.7922H7V30.7922ZM12.3642 30.7922V31.7922H13.1028L13.32 31.0863L12.3642 30.7922ZM14.8917 22.5781V21.5781H14.1531L13.9359 22.2841L14.8917 22.5781ZM16.5681 22.5781L17.5239 22.8722L17.9221 21.5781H16.5681V22.5781ZM14.0407 30.7922L13.0849 30.4981L12.6867 31.7922H14.0407V30.7922ZM19.4049 30.7922V31.7922H20.1435L20.3607 31.0863L19.4049 30.7922ZM20.7674 26.3642V25.3642H20.0288L19.8116 26.0702L20.7674 26.3642ZM26.0887 26.3642L27.0445 26.0702L26.8273 25.3642H26.0887V26.3642ZM27.4512 30.7922L26.4954 31.0863L26.7126 31.7922H27.4512V30.7922ZM32.8154 30.7922V31.7922H34.1694L33.7712 30.4981L32.8154 30.7922ZM31.453 26.3642V25.3642H30.099L30.4972 26.6583L31.453 26.3642ZM33.3932 26.3642V27.3642H34.8066L34.3362 26.0314L33.3932 26.3642ZM31.5 21L32.443 20.6672L32.2075 20H31.5V21ZM29.8024 21L28.8467 21.2941L29.0639 22H29.8024V21ZM26.1102 9.00018L25.1551 8.70376L25.0635 8.9989L25.1544 9.29426L26.1102 9.00018ZM26.1102 9L27.0653 9.29642L27.4677 8H26.1102V9ZM20.7459 9V8H19.3954L19.7894 9.29175L20.7459 9ZM20.7459 9.00018L21.7017 9.29426L21.7918 9.00146L21.7024 8.70843L20.7459 9.00018ZM18.2186 17.2139V18.2139H18.9572L19.1744 17.508L18.2186 17.2139ZM16.5422 17.2139L15.5864 16.9198L15.1882 18.2139H16.5422V17.2139ZM23.4281 17.7171L24.3838 17.423L23.4281 14.3167L22.4723 17.423L23.4281 17.7171ZM24.4382 21V22H25.7921L25.394 20.7059L24.4382 21ZM22.4179 21L21.4621 20.7059L21.064 22H22.4179V21ZM13.7053 10H19.0695V8H13.7053V10ZM12.1337 17.508L14.6611 9.29409L12.7495 8.70591L10.2222 16.9198L12.1337 17.508ZM8.67633 18.2139H11.1779V16.2139H8.67633V18.2139ZM7.95448 22.8764L9.63081 17.5122L7.72185 16.9156L6.04552 22.2799L7.95448 22.8764ZM9.52741 21.5781H7V23.5781H9.52741V21.5781ZM7.95578 31.0863L10.4832 22.8722L8.57163 22.2841L6.04422 30.4981L7.95578 31.0863ZM12.3642 29.7922H7V31.7922H12.3642V29.7922ZM13.9359 22.2841L11.4085 30.4981L13.32 31.0863L15.8474 22.8722L13.9359 22.2841ZM16.5681 21.5781H14.8917V23.5781H16.5681V21.5781ZM15.6123 22.2841L13.0849 30.4981L14.9965 31.0863L17.5239 22.8722L15.6123 22.2841ZM14.0407 31.7922H19.4049V29.7922H14.0407V31.7922ZM20.3607 31.0863L21.7232 26.6583L19.8116 26.0702L18.4491 30.4981L20.3607 31.0863ZM20.7674 27.3642H26.0887V25.3642H20.7674V27.3642ZM25.1329 26.6583L26.4954 31.0863L28.407 30.4981L27.0445 26.0702L25.1329 26.6583ZM27.4512 31.7922H32.8154V29.7922H27.4512V31.7922ZM33.7712 30.4981L32.4087 26.0702L30.4972 26.6583L31.8596 31.0863L33.7712 30.4981ZM31.453 27.3642H33.3932V25.3642H31.453V27.3642ZM34.3362 26.0314L32.443 20.6672L30.557 21.3328L32.4502 26.6971L34.3362 26.0314ZM31.5 20H29.8024V22H31.5V20ZM30.7582 20.7059L27.066 8.70609L25.1544 9.29426L28.8467 21.2941L30.7582 20.7059ZM27.0652 9.2966L27.0653 9.29642L25.1552 8.70358L25.1551 8.70376L27.0652 9.2966ZM26.1102 8H26.1101V10H26.1102V8ZM26.1101 8H20.746V10H26.1101V8ZM20.746 8H20.7459V10H20.746V8ZM19.7894 9.29175L19.7894 9.29193L21.7024 8.70843L21.7024 8.70825L19.7894 9.29175ZM19.7902 8.70609L17.2629 16.9198L19.1744 17.508L21.7017 9.29426L19.7902 8.70609ZM16.5422 18.2139H18.2186V16.2139H16.5422V18.2139ZM18.1138 8.70591L15.5864 16.9198L17.498 17.508L20.0253 9.29409L18.1138 8.70591ZM22.4723 18.0112L23.4824 21.2941L25.394 20.7059L24.3838 17.423L22.4723 18.0112ZM23.3737 21.2941L24.3838 18.0112L22.4723 17.423L21.4621 20.7059L23.3737 21.2941ZM24.4382 20H22.4179V22H24.4382V20Z" fill="#3187FF" mask="url(#path-2-inside-1_51_416)"/>
<defs>
<linearGradient id="paint0_linear_51_416" x1="7" y1="9" x2="35.3999" y2="28.3288" gradientUnits="userSpaceOnUse">
<stop stop-color="#3187FF"/>
<stop offset="1" stop-color="white"/>
</linearGradient>
</defs>
</svg>
