<svg width="30" height="30" viewBox="0 0 30 30" fill="none" xmlns="http://www.w3.org/2000/svg">
<path d="M9.10276 13.2055C11.3686 13.2055 13.2055 11.3686 13.2055 9.10276C13.2055 6.83687 11.3686 5 9.10276 5C6.83687 5 5 6.83687 5 9.10276C5 11.3686 6.83687 13.2055 9.10276 13.2055Z" stroke="#C5C4B4" stroke-dasharray="1 1"/>
<path d="M20.7278 24.83C22.9936 24.83 24.8305 22.9932 24.8305 20.7273C24.8305 18.4614 22.9936 16.6245 20.7278 16.6245C18.4619 16.6245 16.625 18.4614 16.625 20.7273C16.625 22.9932 18.4619 24.83 20.7278 24.83Z" stroke="#C5C4B4" stroke-dasharray="1 1"/>
<path d="M13.8888 5.68384H22.7781M6.70898 24.4881H14.9145" stroke="#C5C4B4" stroke-dasharray="1 1"/>
<path d="M6.86719 11.6541H22.962V22.0947C22.962 22.5739 22.5736 22.9623 22.0944 22.9623H7.73477C7.25561 22.9623 6.86719 22.5739 6.86719 22.0947V11.6541Z" fill="url(#paint0_linear_357_534)" stroke="#56F09F"/>
<path fill-rule="evenodd" clip-rule="evenodd" d="M7.73477 7.05127C6.97948 7.05127 6.36719 7.66356 6.36719 8.41886V10.4702H23.462V8.41886C23.462 7.66356 22.8497 7.05127 22.0944 7.05127H7.73477ZM8.07667 9.10265C8.26549 9.10265 8.41857 8.94957 8.41857 8.76075C8.41857 8.57193 8.26549 8.41886 8.07667 8.41886C7.88785 8.41886 7.73477 8.57193 7.73477 8.76075C7.73477 8.94957 7.88785 9.10265 8.07667 9.10265ZM9.44426 9.10265C9.63308 9.10265 9.78615 8.94957 9.78615 8.76075C9.78615 8.57193 9.63308 8.41886 9.44426 8.41886C9.25543 8.41886 9.10236 8.57193 9.10236 8.76075C9.10236 8.94957 9.25543 9.10265 9.44426 9.10265ZM11.1537 8.76075C11.1537 8.94957 11.0006 9.10265 10.8118 9.10265C10.623 9.10265 10.4699 8.94957 10.4699 8.76075C10.4699 8.57193 10.623 8.41886 10.8118 8.41886C11.0006 8.41886 11.1537 8.57193 11.1537 8.76075Z" fill="#EBEAE2"/>
<path fill-rule="evenodd" clip-rule="evenodd" d="M17.9091 14.7315C18.1205 14.5202 18.4631 14.5202 18.6744 14.7315L20.9634 17.0204L20.9704 17.0273C21.1817 17.2387 21.1817 17.5813 20.9704 17.7926L18.6745 20.0885C18.4632 20.2998 18.1206 20.2998 17.9092 20.0885C17.6979 19.8771 17.6979 19.5346 17.9092 19.3232L19.8224 17.41L17.9091 15.4968C17.6978 15.2855 17.6978 14.9428 17.9091 14.7315ZM11.6396 14.7315C11.4283 14.5202 11.0857 14.5202 10.8743 14.7315L8.58603 17.0198L8.57842 17.0273C8.42528 17.1804 8.38311 17.4025 8.45192 17.5936C8.47807 17.6663 8.52025 17.7345 8.57846 17.7927L8.58366 17.7978L10.8743 20.0884C11.0856 20.2998 11.4283 20.2998 11.6396 20.0884C11.8509 19.8771 11.8509 19.5345 11.6396 19.3231L9.72643 17.41L11.6396 15.4968C11.851 15.2855 11.851 14.9428 11.6396 14.7315ZM16.1789 14.7475C15.92 14.5981 15.5891 14.6868 15.4397 14.9456L13.0046 19.1635C12.8551 19.4223 12.9438 19.7532 13.2026 19.9027C13.4614 20.0521 13.7924 19.9634 13.9418 19.7046L16.377 15.4868C16.5264 15.228 16.4377 14.897 16.1789 14.7475Z" fill="#56F09F"/>
<defs>
<linearGradient id="paint0_linear_357_534" x1="14.9146" y1="11.1541" x2="14.9146" y2="23.4623" gradientUnits="userSpaceOnUse">
<stop stop-color="#56F09F"/>
<stop offset="1" stop-color="#56F09F" stop-opacity="0"/>
</linearGradient>
</defs>
</svg>
