<svg width="24" height="24" viewBox="0 0 24 24" fill="none" xmlns="http://www.w3.org/2000/svg">
<g clip-path="url(#clip0_165_1285)">
<path fill-rule="evenodd" clip-rule="evenodd" d="M0.562933 2.69513C0 3.77882 0 5.20255 0 8.05V15.95C0 18.7975 0 20.2212 0.562933 21.3049C1.03731 22.2181 1.78191 22.9627 2.69513 23.4371C3.77882 24 5.20255 24 8.05 24H15.95C18.7975 24 20.2212 24 21.3049 23.4371C22.2181 22.9627 22.9627 22.2181 23.4371 21.3049C24 20.2212 24 18.7975 24 15.95V8.05C24 5.20255 24 3.77882 23.4371 2.69513C22.9627 1.78191 22.2181 1.03731 21.3049 0.562933C20.2212 0 18.7975 0 15.95 0H8.05C5.20255 0 3.77882 0 2.69513 0.562933C1.78191 1.03731 1.03731 1.78191 0.562933 2.69513ZM11.8869 4.10265C13.0783 4.10265 14.1475 6.02722 14.5752 8.74606H9.16805C9.62628 6.02722 10.6649 4.10265 11.8869 4.10265ZM9.04585 13.6339C8.98475 13.0229 8.95421 12.3814 8.95421 11.6787C8.95421 11.0067 8.98475 10.3651 9.04585 9.72362H14.6974C14.7585 10.3651 14.789 11.0067 14.789 11.6787C14.789 12.3814 14.7585 13.0229 14.6974 13.6339H9.04585ZM14.0253 4.43868C16.2248 5.08021 17.9966 6.69929 18.852 8.74606H15.5527C15.2778 7.03533 14.789 5.47734 14.0253 4.43868ZM4.89122 8.74606C5.74659 6.69929 7.51841 5.08021 9.71792 4.43868C8.95421 5.47734 8.46543 7.03533 8.19049 8.74606H4.89122ZM15.6749 9.72362H19.188C19.3408 10.3651 19.4324 11.0067 19.4324 11.6787C19.4324 12.3814 19.3408 13.0229 19.188 13.6339H15.6749L15.6749 13.6338C15.736 12.9923 15.7971 12.3508 15.7971 11.6787C15.7971 11.0372 15.736 10.3651 15.6749 9.72362ZM8.06829 9.72362C8.00719 10.3651 7.97665 11.0372 7.97665 11.6787C7.97665 12.3508 8.00719 12.9923 8.06829 13.6339H4.55519C4.40244 13.0229 4.3108 12.3814 4.3108 11.6787C4.3108 11.0067 4.40244 10.3651 4.55519 9.72362H8.06829ZM11.8869 19.2548C10.6649 19.2548 9.62628 17.3608 9.16805 14.6114H14.5752C14.1475 17.3608 13.0783 19.2548 11.8869 19.2548ZM18.852 14.6114C17.9966 16.6887 16.2248 18.3078 14.0253 18.9493C14.789 17.9107 15.3083 16.3527 15.5527 14.6114H18.852ZM9.71792 18.9493C7.51841 18.3078 5.74659 16.6887 4.89122 14.6114H8.19049C8.46543 16.3527 8.95421 17.9107 9.71792 18.9493Z" fill="#0A0B1A" fill-opacity="0.8"/>
</g>
<defs>
<clipPath id="clip0_165_1285">
<rect width="24" height="24" fill="white"/>
</clipPath>
</defs>
</svg>
