<svg width="37" height="36" viewBox="0 0 37 36" fill="none" xmlns="http://www.w3.org/2000/svg">
<path d="M16.8322 0.0372916C14.623 0.185039 12.4596 0.737333 10.4333 1.67307C5.84609 3.79078 2.2896 7.85383 0.805094 12.6732C-1.35483 19.6912 0.917663 27.2615 6.58483 31.9261C8.99452 33.9101 11.9037 35.2399 14.9677 35.757C16.1392 35.954 16.7231 35.9997 17.993 35.9997C19.1328 36.0032 19.562 35.9751 20.5329 35.8414C25.5633 35.1484 30.14 32.2709 32.9789 28.0178C34.6498 25.5132 35.6242 22.7939 35.9373 19.751C36.0253 18.9173 36.0253 17.1021 35.9373 16.2684C35.779 14.7241 35.4132 13.127 34.9101 11.7762C33.0492 6.7598 29.06 2.81987 24.0331 1.03283C21.7712 0.227253 19.2313 -0.121009 16.8322 0.0372916ZM10.9575 11.252C12.1359 11.5827 13.0787 12.4657 13.4551 13.5914C13.6169 14.0698 13.6486 14.4321 13.6486 15.7654C13.6486 16.9438 13.6521 16.9931 13.7189 17.0599C13.8069 17.1479 13.8983 17.1479 13.9968 17.0669C14.039 17.0353 14.813 15.7267 15.717 14.1577C17.0397 11.8676 17.3845 11.2942 17.4794 11.2309L17.5991 11.15H21.5249C26.0136 11.15 25.5669 11.1148 25.7955 11.4912C25.9081 11.6812 28.4866 16.1418 29.2289 17.4363C29.4611 17.8409 29.5631 18.0519 29.5736 18.1575C29.5912 18.3298 29.7952 17.964 27.1393 22.5617C26.1156 24.3277 25.6654 25.0734 25.5915 25.1297L25.4859 25.2036L21.5636 25.2142C18.781 25.2212 17.6131 25.2106 17.5463 25.1825C17.497 25.1614 17.4232 25.1121 17.3845 25.0699C17.3458 25.0277 16.593 23.7332 15.7065 22.1959C14.82 20.6586 14.0601 19.3641 14.0109 19.3183C13.9054 19.2234 13.8104 19.2198 13.7189 19.3113C13.6521 19.3781 13.6486 19.4274 13.6486 20.5707C13.6486 21.225 13.631 21.8934 13.6134 22.0552C13.4586 23.304 12.7199 24.3347 11.5907 24.8729C10.9012 25.2036 10.9434 25.1966 8.77642 25.2106C6.61297 25.2247 6.70092 25.2353 6.54965 24.9398L6.46875 24.7815L6.48282 22.9522L6.49337 21.123L6.58483 20.7888C6.86977 19.7475 7.52057 18.956 8.48444 18.4776C8.88195 18.2841 8.89602 18.0836 8.52666 17.9218C8.01657 17.6966 7.408 17.1725 7.07381 16.6765C6.86274 16.3669 6.69388 15.987 6.58483 15.5859L6.49337 15.2482L6.48282 13.419L6.46875 11.5897L6.54965 11.435C6.70444 11.1359 6.61297 11.1465 8.77642 11.1606C10.6197 11.1711 10.6831 11.1746 10.9575 11.252Z" fill="#100060"/>
<path d="M21.2299 15.4804C20.6143 15.5754 20.1922 15.79 19.7349 16.2508C19.4499 16.5323 19.3725 16.6378 19.2318 16.9192C18.9926 17.4047 18.9434 17.6158 18.9434 18.2032C18.9434 18.6218 18.9574 18.7344 19.0243 18.9595C19.1755 19.445 19.3655 19.7511 19.7349 20.1239C20.0233 20.4159 20.1148 20.4863 20.4032 20.627C20.945 20.8908 21.4199 20.9717 21.9335 20.8943C22.9923 20.7325 23.805 20.0184 24.1391 18.9595C24.2095 18.7309 24.2201 18.6254 24.2165 18.168C24.2165 17.6931 24.206 17.6122 24.1216 17.359C23.9633 16.8946 23.7733 16.5886 23.4145 16.2333C23.1717 15.9905 23.024 15.878 22.8059 15.7654C22.324 15.5156 21.7119 15.4066 21.2299 15.4804Z" fill="#100060"/>
</svg>
