<svg width="1440" height="777" viewBox="0 0 1440 777" fill="none" xmlns="http://www.w3.org/2000/svg">
<path d="M9.74574e-06 737C1.21367e-05 759.091 17.9086 777 40 777L1100 777C1122.09 777 1140 759.091 1140 737L1140 716.239C1140 694.148 1157.91 676.239 1180 676.239L1339 676.239L1400 676.239C1422.09 676.239 1440 658.331 1440 636.239L1440 39.9998C1440 17.9084 1422.09 -0.000124323 1400 -0.000122392L896.5 -7.83745e-05L353 -3.08602e-05L340 -2.97237e-05C317.909 -2.77925e-05 300 17.9086 300 40L300 60.6254C300 82.7168 282.091 100.625 260 100.625L39.9999 100.625C17.9085 100.625 -5.71923e-05 118.534 -5.48013e-05 140.625L9.74574e-06 737Z" fill="#004737"/>
</svg>
