<svg width="37" height="36" viewBox="0 0 37 36" fill="none" xmlns="http://www.w3.org/2000/svg">
<path d="M16.0383 0.0745046C8.44214 0.943013 2.26537 6.40035 0.476499 13.8216C-0.0679394 16.0706 -0.145716 18.7409 0.262612 21.0807C0.593164 23.0187 1.34501 25.1316 2.26537 26.7649C6.5755 34.3676 15.468 37.8028 23.7188 35.0676C24.8855 34.6787 26.4864 33.9334 27.478 33.3241C29.591 32.0149 31.6261 30.038 33.0196 27.9445C37.2261 21.6381 36.9862 13.2447 32.4428 7.21053C29.5456 3.36706 25.4105 0.891161 20.6726 0.165244C19.5318 -0.00975366 17.1661 -0.0551235 16.0383 0.0745046ZM23.7577 10.3799C24.1271 11.0216 24.4318 11.566 24.4318 11.592C24.4318 11.6244 21.5475 11.6438 18.0152 11.6438C14.0615 11.6438 11.5986 11.6179 11.5986 11.5855C11.5986 11.5336 12.6032 9.74476 12.8689 9.32347L12.9662 9.18088L18.0217 9.19384L23.0836 9.21328L23.7577 10.3799ZM8.22826 11.3003C8.53288 11.8253 8.78566 12.2855 8.79862 12.3244C8.8051 12.3632 8.12456 13.5947 7.28197 15.053C6.43939 16.5113 5.71995 17.7817 5.68107 17.8724C5.62273 18.0215 5.77829 18.3132 7.21716 20.802C8.09215 22.3252 8.81158 23.589 8.81158 23.6085C8.81158 23.6733 7.68382 25.6372 7.64493 25.6436C7.59308 25.6436 3.23758 18.0798 3.23758 17.9891C3.23758 17.8919 7.5866 10.3475 7.63845 10.3475C7.66438 10.3475 7.93011 10.7753 8.22826 11.3003ZM30.5891 14.1132C31.7817 16.1808 32.7604 17.9243 32.7604 17.9891C32.7604 18.0993 28.4502 25.6372 28.3854 25.6436C28.3141 25.6436 27.2512 23.7251 27.2512 23.602C27.2577 23.5307 27.9641 22.2539 28.8262 20.7631C29.6882 19.2724 30.3947 18.0215 30.3947 17.9891C30.3947 17.9502 29.6817 16.6863 28.8067 15.1762C27.9317 13.666 27.2188 12.3957 27.2188 12.3568C27.2188 12.266 28.3271 10.3475 28.3789 10.3475C28.3984 10.3475 29.3965 12.0392 30.5891 14.1132ZM13.1995 13.5688C13.1865 13.6012 12.6162 14.5864 11.9291 15.7725C11.2486 16.9586 10.6912 17.9502 10.6912 17.9891C10.6912 18.0215 11.2616 19.0326 11.9551 20.2382C12.6486 21.4372 13.2189 22.4289 13.2189 22.4418C13.2189 22.4548 12.5967 22.4678 11.8384 22.4678H10.4514L9.18102 20.2641C8.47455 19.0456 7.90419 18.028 7.90419 17.9891C7.90419 17.9502 8.47455 16.9262 9.17454 15.7206L10.4449 13.5234H11.8384C12.6032 13.5234 13.2125 13.5429 13.1995 13.5688ZM21.8522 15.6947C22.5327 16.8678 23.1031 17.8789 23.116 17.9373C23.129 17.9891 22.5716 19.0326 21.8651 20.2511L20.5883 22.4678L18.0022 22.4548L15.4161 22.4353L14.1263 20.2122L12.843 17.9826L13.1476 17.4576C13.3226 17.166 13.8023 16.3299 14.2236 15.5975C14.6448 14.8651 15.0856 14.1003 15.2087 13.8929L15.4356 13.5234L18.0217 13.5364L20.6142 13.5558L21.8522 15.6947ZM26.8364 15.7076C27.5299 16.9132 28.0938 17.9437 28.0873 17.9956C28.0873 18.0539 27.5169 19.0845 26.8299 20.2835L25.566 22.4678H24.192C23.4336 22.4678 22.8114 22.4548 22.8114 22.4353C22.8114 22.4159 23.3688 21.4372 24.0429 20.2641C24.7234 19.0909 25.2938 18.0928 25.3068 18.041C25.3262 17.9956 24.7753 16.9715 24.0753 15.766C23.3818 14.5604 22.8114 13.5623 22.8114 13.5493C22.8114 13.5364 23.4336 13.5234 24.192 13.5234H25.5725L26.8364 15.7076ZM24.4318 24.3862C24.4318 24.4122 24.1336 24.9501 23.7707 25.5853L23.1031 26.7455H18.0152H12.9208L12.3893 25.8186C12.0977 25.3131 11.7801 24.7751 11.6893 24.6196L11.5273 24.3474H17.9763C21.5281 24.3474 24.4318 24.3668 24.4318 24.3862Z" fill="#FF2A00"/>
</svg>
