<svg width="36" height="36" viewBox="0 0 36 36" fill="none" xmlns="http://www.w3.org/2000/svg">
<circle cx="18" cy="18" r="18" fill="#A5A8A9"/>
<path d="M18.2917 18.5921L16.4194 24.9099H26.4339C26.5954 24.9103 26.7473 24.9866 26.844 25.1159C26.9407 25.2451 26.9711 25.4124 26.9259 25.5674L26.0551 28.5674C25.9697 28.8618 25.6998 29.0643 25.3933 29.0638H10.0972L12.6835 20.3294L9.82288 21.2002L10.4542 19.1581L13.3192 18.2873L16.9506 6.01733C17.0326 5.72184 17.3014 5.51715 17.6081 5.5166H21.4833C21.6445 5.51603 21.7966 5.59115 21.8941 5.71951C21.9917 5.84786 22.0233 6.01455 21.9796 6.16973L18.9317 16.5456L21.7924 15.6748L21.1785 17.7517L18.2917 18.5921Z" fill="white"/>
</svg>
