<svg width="72" height="72" viewBox="0 0 72 72" fill="none" xmlns="http://www.w3.org/2000/svg">
<path d="M21 36C12.6 36 6 42.6 6 51C6 59.4 12.6 66 21 66C29.4 66 36 59.4 36 51C36 42.6 29.4 36 21 36ZM33 21C25.8 21 19.2 25.5 16.5 32.1C27 29.4 37.5 36 39.9 46.2C40.8 49.2 40.8 52.5 39.9 55.5C49.2 51.6 53.4 41.1 49.5 32.1C46.8 25.5 40.2 21 33 21ZM63.6 17.4C60.3 10.5 52.8 6 45 6C37.2 6 29.7 10.5 26.4 17.4C38.4 13.8 51 20.4 54.6 32.1C56.1 36.6 56.1 41.1 54.6 45.6C64.8 40.5 69 27.9 63.6 17.4Z" fill="#004737" fill-opacity="0.06"/>
</svg>
