<svg width="60" height="60" viewBox="0 0 60 60" fill="none" xmlns="http://www.w3.org/2000/svg">
<path d="M15 30C6.6 30 0 36.6 0 45C0 53.4 6.6 60 15 60C23.4 60 30 53.4 30 45C30 36.6 23.4 30 15 30ZM27 15C19.8 15 13.2 19.5 10.5 26.1C21 23.4 31.5 30 33.9 40.2C34.8 43.2 34.8 46.5 33.9 49.5C43.2 45.6 47.4 35.1 43.5 26.1C40.8 19.5 34.2 15 27 15ZM57.6 11.4C54.3 4.5 46.8 0 39 0C31.2 0 23.7 4.5 20.4 11.4C32.4 7.8 45 14.4 48.6 26.1C50.1 30.6 50.1 35.1 48.6 39.6C58.8 34.5 63 21.9 57.6 11.4Z" fill="#004737" fill-opacity="0.06"/>
</svg>
