<svg xmlns="http://www.w3.org/2000/svg" viewBox="0 0 240 277.13"><defs><style>.cls-1{fill:#009d68;}.cls-2{fill:#00a76b;}.cls-3{fill:#03b666;}.cls-4{fill:#009664;}.cls-5{fill:#00905d;}.cls-6{fill:#008454;}.cls-7{fill:#007347;}.cls-8{fill:#09c66b;}</style></defs><g id="图层_2" data-name="图层 2"><g id="图层_3" data-name="图层 3"><polygon class="cls-1" points="120 0 80 23.09 120 46.19 160 23.09 120 0"/><polygon class="cls-2" points="40 46.19 80 23.09 120 46.19 80 69.28 40 46.19"/><polygon class="cls-3" points="0 69.28 40 46.19 80 69.28 40 92.38 0 69.28"/><polygon class="cls-4" points="120 46.19 160 69.28 200 46.19 160 23.09 120 46.19"/><polygon class="cls-5" points="200 92.38 240 69.28 200 46.19 160 69.28 200 92.38"/><polygon class="cls-1" points="200 138.56 240 115.47 240 69.28 200 92.38 200 138.56"/><polygon class="cls-2" points="200 184.75 240 161.66 240 115.47 200 138.56 200 184.75"/><polygon class="cls-3" points="200 230.94 240 207.85 240 161.66 200 184.75 200 230.94"/><polygon class="cls-6" points="200 92.38 160 115.47 120 92.38 160 69.28 200 92.38"/><polygon class="cls-7" points="80 115.47 120 92.38 160 115.47 120 138.56 80 115.47"/><polygon class="cls-6" points="80 161.66 120 184.75 120 138.56 80 115.47 80 161.66"/><polygon class="cls-5" points="80 207.85 80 161.66 120 184.75 120 230.94 80 207.85"/><polygon class="cls-2" points="56.14 196.31 72.49 205.76 72.49 224.66 56.14 215.28 56.14 196.31"/><polygon class="cls-2" points="46.3 215.81 55.09 220.89 55.09 231.06 46.3 226.01 46.3 215.81"/><polygon class="cls-2" points="39.98 197.91 44.64 200.6 44.64 205.99 39.98 203.32 39.98 197.91"/><polygon class="cls-4" points="0 134.11 16.41 143.59 16.41 162.56 0 153.15 0 134.11"/><path class="cls-4" d="M0,69.28v46.19L16.41,125v-10.2l8.79,5.08V130l-8.79-5v18.61L40,157.26V92.38Zm16.41,45.47L4.66,108V94.38l11.75,6.79Z"/><path class="cls-4" d="M80,207.85v28.09l-20.85-12V242L80,254h0l40,23.09V230.94Zm6.47,42.28-7.35-4.22v-8.52l7.35,4.25Zm11.66-2.87-11.66-6.69V227.05l11.66,6.73Z"/><polygon class="cls-8" points="200 184.75 200 230.94 160 254.04 160 207.85 200 184.75"/><polygon class="cls-8" points="189.79 177.07 189.79 197.28 172.28 207.38 172.28 187.17 189.79 177.07"/><polygon class="cls-8" points="171.36 170.2 171.36 182.94 160.33 189.32 160.33 176.57 171.36 170.2"/><polygon class="cls-8" points="181.25 155.85 181.25 162.15 175.8 165.3 175.8 159 181.25 155.85"/></g></g></svg>