<svg width="106" height="60" viewBox="0 0 106 60" fill="none" xmlns="http://www.w3.org/2000/svg">
<path d="M21.4941 25.8209V21.4214L23.9235 23.8473C25.7353 22.0382 27.0529 19.6946 27.6706 17.1043L24.5412 13.9794H28C28 11.2247 27.2176 8.67548 25.8588 6.53745H21.4941L23.9235 4.1116C22.0706 2.26138 19.7647 0.945668 17.1294 0.370044L14 3.49486V0C11.2412 0 8.68824 0.781204 6.54706 2.13803V6.49633L4.11765 4.1116C2.30588 5.92071 0.988235 8.26432 0.370588 10.8546L3.5 13.9794H0C0 16.7342 0.782353 19.2834 2.14118 21.4214H6.50588L4.11765 23.8884C5.92941 25.6975 8.27647 27.0132 10.8706 27.63L14 24.5051V28C16.7588 27.9589 19.3118 27.1777 21.4941 25.8209ZM7 13.9794C7 10.1145 10.1294 6.98972 14 6.98972C17.8706 6.98972 21 10.1145 21 13.9794C21 17.8443 17.8706 20.9692 14 20.9692C10.1294 20.9692 7 17.8443 7 13.9794Z" fill="#3AFFA7"/>
<path fill-rule="evenodd" clip-rule="evenodd" d="M68.8404 32C66.1242 32 63.7925 32.5893 61.8894 33.9018L61.8859 33.9043C59.8744 35.3153 58.8366 37.0656 58.8366 39.319C58.8366 41.5216 59.6196 43.2637 61.0993 44.5982C62.647 45.9941 64.6178 46.9725 67.2809 47.8379L68.3333 48.2176L68.3439 48.2209C70.1197 48.7862 71.3022 49.3314 71.8536 49.7458C72.3195 50.096 72.6015 50.6903 72.6015 51.5438C72.6015 52.0056 72.5084 52.3707 72.3376 52.6608C72.1691 52.9468 71.9082 53.1888 71.5178 53.3844C70.6433 53.8226 69.6828 54.0806 68.6303 54.0806C67.3473 54.0806 66.2032 53.8141 65.2653 53.2219C64.2989 52.6118 63.6328 51.8349 63.2536 50.9799L63.04 50.4984L57 52.9951L57.1949 53.4345C58.0771 55.4237 59.515 57.0193 61.498 58.2116C63.4958 59.4128 65.918 60 68.7353 60C70.4872 60 72.1222 59.7033 73.741 59.2167L73.7562 59.2121L73.7711 59.2067C75.4257 58.6098 76.8667 57.7107 78.0834 56.4138C79.3237 55.0918 80 53.4616 80 51.6386C80 49.5286 79.216 47.7029 77.6522 46.1887C76.1917 44.6729 73.67 43.4082 70.3905 42.3585L69.2238 41.9759L69.2107 41.9722C67.8847 41.6042 67.035 41.161 66.5994 40.7681C66.1952 40.4036 66.025 39.9702 66.025 39.4137C66.025 39.0302 66.228 38.6228 66.7991 38.3284L66.8155 38.32L66.8312 38.3106C67.3434 38.0026 68.067 37.8246 69.0505 37.8246C70.0293 37.8246 70.7989 38.001 71.3958 38.3057C71.9889 38.6085 72.4414 39.053 72.7648 39.6363L72.9795 40.0236L79.5031 37.987L79.1996 37.4737C78.3119 35.9726 76.9867 34.6836 75.2436 33.6029C73.4489 32.49 71.2313 32 68.8404 32Z" fill="white"/>
<path fill-rule="evenodd" clip-rule="evenodd" d="M38.8617 0H32V28H39V16.9944H48V28H55V0H49H48V1V11H39L38.8617 0Z" fill="white"/>
<path fill-rule="evenodd" clip-rule="evenodd" d="M9.86173 32H3V60H10V48.9944H19V60H26V32H20H19V33V43H10L9.86173 32Z" fill="white"/>
<path fill-rule="evenodd" clip-rule="evenodd" d="M89.8617 32H83V60H90V48.9944H99V60H106V32H100H99V33V43H90L89.8617 32Z" fill="white"/>
<path fill-rule="evenodd" clip-rule="evenodd" d="M42 32H44L57 60H50L48 55H38L36.1203 60H29L42 32ZM43 42L39 50H47L43 42Z" fill="white"/>
<path fill-rule="evenodd" clip-rule="evenodd" d="M68.1518 0L74.9998 1.80092L70.0872 19.797L63.2391 17.9961L68.1518 0ZM62.8123 19.7042L69.5499 21.476L67.7742 27.9806L61.0366 26.2088L62.8123 19.7042Z" fill="#3AFFA7"/>
</svg>
