<svg width="16" height="16" viewBox="0 0 16 16" fill="none" xmlns="http://www.w3.org/2000/svg">
<path d="M9.02496 7.88481C9.02496 10.3986 7.00463 12.4365 4.51256 12.4365C2.02049 12.4365 0 10.3982 0 7.88481C0 5.37146 2.02033 3.33301 4.51256 3.33301C7.00478 3.33301 9.02496 5.371 9.02496 7.88481Z" fill="#004737"/>
<path d="M13.9752 7.88478C13.9752 10.251 12.965 12.1699 11.7189 12.1699C10.4728 12.1699 9.46265 10.251 9.46265 7.88478C9.46265 5.51857 10.4727 3.59961 11.7188 3.59961C12.9649 3.59961 13.9751 5.51795 13.9751 7.88478" fill="#004737"/>
<path d="M16 7.88473C16 10.0043 15.6448 11.7236 15.2065 11.7236C14.7682 11.7236 14.4131 10.0047 14.4131 7.88473C14.4131 5.76473 14.7683 4.0459 15.2065 4.0459C15.6446 4.0459 16 5.76457 16 7.88473Z" fill="#004737"/>
</svg>
