<svg width="24" height="24" viewBox="0 0 24 24" fill="none" xmlns="http://www.w3.org/2000/svg">
<path d="M23.9995 11.8276C23.9995 15.0069 23.4667 17.5858 22.8092 17.5858C22.1517 17.5858 21.6191 15.0076 21.6191 11.8276C21.6191 8.64758 22.152 6.06934 22.8092 6.06934C23.4665 6.06934 23.9995 8.64735 23.9995 11.8276Z" fill="#0A0B1A" fill-opacity="0.8"/>
<path d="M20.9632 11.8281C20.9632 15.3775 19.4479 18.2559 17.5788 18.2559C15.7096 18.2559 14.1943 15.3775 14.1943 11.8281C14.1943 8.27883 15.7094 5.40039 17.5785 5.40039C19.4477 5.40039 20.9629 8.2779 20.9629 11.8281" fill="#0A0B1A" fill-opacity="0.8"/>
<path d="M13.5374 11.8277C13.5374 15.5984 10.5069 18.6552 6.76884 18.6552C3.03073 18.6552 0 15.5977 0 11.8277C0 8.05767 3.0305 5 6.76884 5C10.5072 5 13.5374 8.05698 13.5374 11.8277Z" fill="#0A0B1A" fill-opacity="0.8"/>
</svg>
