<svg width="24" height="24" viewBox="0 0 24 24" fill="none" xmlns="http://www.w3.org/2000/svg">
<path d="M22.8158 0L13.4377 7.50023L15.1856 3.08228L22.8158 0Z" fill="#E27625"/>
<path d="M1.20239 0L10.4865 7.56188L8.83266 3.08228L1.20239 0Z" fill="#E27625"/>
<path d="M19.4515 17.3838L16.9519 21.5141L22.2893 23.0963L23.8304 17.4866L19.4515 17.3838Z" fill="#E27625"/>
<path d="M0.206787 17.4866L1.72908 23.0963L7.04771 21.5141L4.56693 17.3838L0.206787 17.4866Z" fill="#E27625"/>
<path d="M6.76571 10.4385L5.28101 12.8427L10.562 13.1098L10.3929 6.96582L6.76571 10.4385Z" fill="#E27625"/>
<path d="M17.2529 10.4377L13.5693 6.88281L13.4377 13.1091L18.7376 12.8419L17.2529 10.4377Z" fill="#E27625"/>
<path d="M7.04736 21.5147L10.2611 19.8503L7.49842 17.5283L7.04736 21.5147Z" fill="#E27625"/>
<path d="M13.7573 19.8503L16.9523 21.5147L16.52 17.5283L13.7573 19.8503Z" fill="#E27625"/>
<path d="M16.9523 21.515L13.7573 19.8506L14.0204 22.0904L13.9828 23.0356L16.9523 21.515Z" fill="#D7C1B3"/>
<path d="M7.04736 21.515L10.0168 23.0356L9.99797 22.0904L10.2611 19.8506L7.04736 21.515Z" fill="#D7C1B3"/>
<path d="M10.0733 16.0494L7.42334 15.207L9.30271 14.2822L10.0733 16.0494Z" fill="#2F343B"/>
<path d="M13.9453 16.0494L14.7159 14.2822L16.5952 15.207L13.9453 16.0494Z" fill="#2F343B"/>
<path d="M7.04791 21.5141L7.51778 17.3838L4.56714 17.4866L7.04791 21.5141Z" fill="#CC6228"/>
<path d="M16.5007 17.3838L16.9518 21.5141L19.4514 17.4866L16.5007 17.3838Z" fill="#CC6228"/>
<path d="M18.7376 12.8428L13.4377 13.1099L13.9452 16.0484L14.7157 14.2812L16.5951 15.2059L18.7376 12.8428Z" fill="#CC6228"/>
<path d="M7.42347 15.2059L9.30284 14.2812L10.0734 16.0484L10.562 13.1099L5.28101 12.8428L7.42347 15.2059Z" fill="#CC6228"/>
<path d="M5.28101 12.8428L7.49869 17.5279L7.42347 15.2059L5.28101 12.8428Z" fill="#E27625"/>
<path d="M16.5947 15.2059L16.5195 17.5279L18.7372 12.8428L16.5947 15.2059Z" fill="#E27625"/>
<path d="M10.5621 13.1094L10.0735 16.0478L10.6937 19.5L10.844 14.9382L10.5621 13.1094Z" fill="#E27625"/>
<path d="M13.4375 13.1094L13.1931 14.9382L13.3059 19.5L13.9449 16.0478L13.4375 13.1094Z" fill="#E27625"/>
<path d="M13.9449 16.0486L13.3059 19.5007L13.7569 19.85L16.5196 17.528L16.5948 15.2061L13.9449 16.0486Z" fill="#F5841F"/>
<path d="M7.42334 15.2061L7.49856 17.528L10.2612 19.85L10.6934 19.5007L10.0733 16.0486L7.42334 15.2061Z" fill="#F5841F"/>
<path d="M13.9822 23.0343L14.0198 22.089L13.7755 21.863H10.2423L9.99797 22.089L10.0168 23.0343L7.04736 21.5137L8.0998 22.4384L10.2047 24.0001H13.8131L15.918 22.4384L16.9517 21.5137L13.9822 23.0343Z" fill="#C0AD9E"/>
<path d="M13.7568 19.8503L13.3058 19.501H10.6934L10.2612 19.8503L9.99805 22.0901L10.2424 21.8641H13.7756L14.0199 22.0901L13.7568 19.8503Z" fill="#2F343B"/>
<path d="M23.2106 7.9934L23.9999 3.84258L22.8159 0L13.7573 7.25365L17.2529 10.4387L22.1769 11.9798L23.2482 10.6031L22.7784 10.2332L23.5301 9.49344L22.9663 9.02086L23.718 8.40437L23.2106 7.9934Z" fill="#763E1A"/>
<path d="M0 3.84258L0.808132 7.9934L0.3007 8.40437L1.05245 9.02086L0.488637 9.49344L1.24039 10.2332L0.751747 10.6031L1.84179 11.9798L6.76575 10.4387L10.2614 7.25365L1.2028 0L0 3.84258Z" fill="#763E1A"/>
<path d="M22.1764 11.9806L17.2525 10.4395L18.7372 12.8437L16.5195 17.5287L19.4514 17.4876H23.8303L22.1764 11.9806Z" fill="#F5841F"/>
<path d="M6.7658 10.4395L1.84184 11.9806L0.206787 17.4876H4.56693L7.49878 17.5287L5.2811 12.8437L6.7658 10.4395Z" fill="#F5841F"/>
<path d="M13.4378 13.1087L13.7572 7.25241L15.1856 3.08105H8.83325L10.2616 7.25241L10.5623 13.1087L10.6938 14.9581V19.4994H13.3062L13.3249 14.9581L13.4378 13.1087Z" fill="#F5841F"/>
</svg>
