<svg width="28" height="28" viewBox="0 0 28 28" fill="none" xmlns="http://www.w3.org/2000/svg">
<path opacity="0.4" d="M9.24838 14.3419C12.1006 14.3419 14.4128 12.0454 14.4128 9.21258C14.4128 6.37973 12.1006 4.08325 9.24838 4.08325C6.39616 4.08325 4.08398 6.37973 4.08398 9.21258C4.08398 12.0454 6.39616 14.3419 9.24838 14.3419Z" fill="#B7C6C9"/>
<path d="M21.9872 7.50269H11.6584C10.8978 7.50269 10.2812 8.11508 10.2812 8.87051V19.1292C10.2812 19.8846 10.8978 20.497 11.6584 20.497H21.9872C22.7478 20.497 23.3644 19.8846 23.3644 19.1292V8.87051C23.3644 8.11508 22.7478 7.50269 21.9872 7.50269Z" fill="url(#paint0_linear_318_410)" fill-opacity="0.75" stroke="#56F09F"/>
<path d="M19.2327 23.9165H5.46094L12.1247 12.29L19.2327 23.9165Z" stroke="#7D8F92" stroke-dasharray="1.41 1.41"/>
<defs>
<linearGradient id="paint0_linear_318_410" x1="16.3795" y1="12.0889" x2="18.3421" y2="20.7434" gradientUnits="userSpaceOnUse">
<stop offset="0.0352858" stop-color="#56F09F"/>
<stop offset="1" stop-color="#79FA4B" stop-opacity="0"/>
</linearGradient>
</defs>
</svg>
