<svg width="30" height="30" viewBox="0 0 30 30" fill="none" xmlns="http://www.w3.org/2000/svg">
<path d="M14.254 6.32202H6.983C5.88782 6.32202 5 7.20984 5 8.30502V18.22C5 19.3152 5.88782 20.203 6.983 20.203H14.254C15.3492 20.203 16.237 19.3152 16.237 18.22V8.30502C16.237 7.20984 15.3492 6.32202 14.254 6.32202Z" fill="#EBEAE2"/>
<path d="M23.1709 12.7142L23.1709 12.7142C23.4875 12.9956 23.6686 13.399 23.6686 13.8226V22.1861C23.6686 23.0052 23.0047 23.6691 22.1856 23.6691H14.9146C14.0956 23.6691 13.4316 23.0052 13.4316 22.1861V12.2711C13.4316 11.4521 14.0956 10.7881 14.9146 10.7881H20.4402C20.8033 10.7881 21.1539 10.9214 21.4255 11.1627C21.4255 11.1627 21.4255 11.1627 21.4255 11.1627L23.1709 12.7142Z" fill="url(#paint0_linear_357_521)" stroke="#56F09F"/>
<path d="M21.168 12.6014V10.5957C21.168 10.3602 21.4527 10.2422 21.6193 10.4088L24.0216 12.8111C24.1881 12.9776 24.0702 13.2624 23.8346 13.2624H21.829C21.4639 13.2624 21.168 12.9665 21.168 12.6014Z" fill="#56F09F"/>
<path d="M6.98242 8.53198H18.8804" stroke="#C5C4B4" stroke-dasharray="1 1"/>
<path d="M6.98242 10.949H11.6094" stroke="#C5C4B4" stroke-dasharray="1 1"/>
<path d="M6.98242 13.593H20.2024" stroke="#C5C4B4" stroke-dasharray="1 1"/>
<path d="M6.98242 16.2371H15.5754" stroke="#C5C4B4" stroke-dasharray="1 1"/>
<path d="M6.98242 18.8811H14.2534" stroke="#C5C4B4" stroke-dasharray="1 1"/>
<path d="M6.983 24.83C8.07818 24.83 8.966 23.9422 8.966 22.847C8.966 21.7518 8.07818 20.864 6.983 20.864C5.88782 20.864 5 21.7518 5 22.847C5 23.9422 5.88782 24.83 6.983 24.83Z" stroke="#C5C4B4" stroke-dasharray="1 1"/>
<path d="M22.1861 8.966C23.2813 8.966 24.1691 8.07818 24.1691 6.983C24.1691 5.88782 23.2813 5 22.1861 5C21.0909 5 20.2031 5.88782 20.2031 6.983C20.2031 8.07818 21.0909 8.966 22.1861 8.966Z" stroke="#C5C4B4" stroke-dasharray="1 1"/>
<defs>
<linearGradient id="paint0_linear_357_521" x1="18.5501" y1="10.2881" x2="18.5501" y2="24.1691" gradientUnits="userSpaceOnUse">
<stop stop-color="#56F09F"/>
<stop offset="1" stop-color="#56F09F" stop-opacity="0"/>
</linearGradient>
</defs>
</svg>
