<svg width="18" height="18" viewBox="0 0 18 18" fill="none" xmlns="http://www.w3.org/2000/svg">
<path d="M5.24983 9.75011L10.9423 9.7501L8.46733 12.2176C8.32611 12.3588 8.24677 12.5504 8.24677 12.7501C8.24677 12.9498 8.32611 13.1414 8.46733 13.2826C8.60856 13.4238 8.80011 13.5032 8.99983 13.5032C9.19956 13.5032 9.39111 13.4238 9.53233 13.2826L13.2823 9.5326C13.3506 9.46128 13.4041 9.37717 13.4398 9.2851C13.5148 9.10251 13.5148 8.8977 13.4398 8.7151C13.4041 8.62304 13.3506 8.53893 13.2823 8.4676L9.53233 4.71761C9.46261 4.64731 9.37966 4.59151 9.28827 4.55344C9.19687 4.51536 9.09884 4.49576 8.99983 4.49576C8.90082 4.49576 8.80279 4.51536 8.7114 4.55344C8.62001 4.59151 8.53705 4.64731 8.46733 4.71761C8.39704 4.78733 8.34124 4.87028 8.30316 4.96167C8.26509 5.05307 8.24548 5.1511 8.24548 5.25011C8.24548 5.34911 8.26509 5.44714 8.30316 5.53854C8.34124 5.62993 8.39704 5.71288 8.46733 5.7826L10.9423 8.2501L5.24983 8.25011C5.05092 8.25011 4.86015 8.32912 4.7195 8.46978C4.57885 8.61043 4.49983 8.80119 4.49983 9.00011C4.49983 9.19902 4.57885 9.38978 4.7195 9.53044C4.86015 9.67109 5.05092 9.75011 5.24983 9.75011Z" fill="#0A0B1A"/>
</svg>
