<svg width="24" height="24" viewBox="0 0 24 24" fill="none" xmlns="http://www.w3.org/2000/svg">
<path d="M6.21724 14.6434C6.21724 15.8058 5.27853 16.7453 4.11708 16.7453C2.95563 16.7453 2.01693 15.8058 2.01693 14.6434C2.01693 13.4809 2.95563 12.5415 4.11708 12.5415H6.21724V14.6434ZM7.26732 14.6434C7.26732 13.4809 8.20603 12.5415 9.36748 12.5415C10.5289 12.5415 11.4676 13.4809 11.4676 14.6434V19.8981C11.4676 21.0605 10.5289 22 9.36748 22C8.20603 22 7.26732 21.0605 7.26732 19.8981V14.6434Z" fill="#0A0B1A" fill-opacity="0.8"/>
<path d="M9.36646 6.2038C8.20501 6.2038 7.2663 5.26431 7.2663 4.1019C7.2663 2.93948 8.20501 2 9.36646 2C10.5279 2 11.4666 2.93948 11.4666 4.1019V6.2038H9.36646ZM9.36646 7.27067C10.5279 7.27067 11.4666 8.21015 11.4666 9.37257C11.4666 10.535 10.5279 11.4745 9.36646 11.4745H4.10016C2.93871 11.4745 2 10.535 2 9.37257C2 8.21015 2.93871 7.27067 4.10016 7.27067H9.36646Z" fill="#0A0B1A" fill-opacity="0.8"/>
<path d="M17.7838 9.37257C17.7838 8.21015 18.7225 7.27067 19.8839 7.27067C21.0454 7.27067 21.9841 8.21015 21.9841 9.37257C21.9841 10.535 21.0454 11.4745 19.8839 11.4745H17.7838V9.37257ZM16.7337 9.37257C16.7337 10.535 15.795 11.4745 14.6335 11.4745C13.4721 11.4745 12.5334 10.535 12.5334 9.37257V4.1019C12.5334 2.93948 13.4721 2 14.6335 2C15.795 2 16.7337 2.93948 16.7337 4.1019V9.37257Z" fill="#0A0B1A" fill-opacity="0.8"/>
<path d="M14.6335 17.7962C15.795 17.7962 16.7337 18.7357 16.7337 19.8981C16.7337 21.0605 15.795 22 14.6335 22C13.4721 22 12.5334 21.0605 12.5334 19.8981V17.7962H14.6335ZM14.6335 16.7453C13.4721 16.7453 12.5334 15.8058 12.5334 14.6434C12.5334 13.4809 13.4721 12.5415 14.6335 12.5415H19.8998C21.0613 12.5415 22 13.4809 22 14.6434C22 15.8058 21.0613 16.7453 19.8998 16.7453H14.6335Z" fill="#0A0B1A" fill-opacity="0.8"/>
</svg>
