<svg width="24" height="24" viewBox="0 0 24 24" fill="none" xmlns="http://www.w3.org/2000/svg">
<g clip-path="url(#clip0_1045_923)">
<path fill-rule="evenodd" clip-rule="evenodd" d="M0.562933 2.69513C0 3.77882 0 5.20255 0 8.05V15.95C0 18.7975 0 20.2212 0.562933 21.3049C1.03731 22.2181 1.78191 22.9627 2.69513 23.4371C3.77882 24 5.20255 24 8.05 24H15.95C18.7975 24 20.2212 24 21.3049 23.4371C22.2181 22.9627 22.9627 22.2181 23.4371 21.3049C24 20.2212 24 18.7975 24 15.95V8.05C24 5.20255 24 3.77882 23.4371 2.69513C22.9627 1.78191 22.2181 1.03731 21.3049 0.562933C20.2212 0 18.7975 0 15.95 0H8.05C5.20255 0 3.77882 0 2.69513 0.562933C1.78191 1.03731 1.03731 1.78191 0.562933 2.69513ZM9.48667 16.8467L12.0733 14.26C12.1989 14.1345 12.3691 14.0639 12.5467 14.0639C12.7242 14.0639 12.8945 14.1345 13.02 14.26C13.1455 14.3855 13.2161 14.5558 13.2161 14.7333C13.2161 14.9109 13.1455 15.0811 13.02 15.2067L10.4267 17.7933C9.85947 18.3144 9.11289 18.5963 8.34283 18.58C7.57278 18.5636 6.83879 18.2505 6.29416 17.7058C5.74952 17.1612 5.43635 16.4272 5.42005 15.6572C5.40375 14.8871 5.68557 14.1405 6.20667 13.5733L8.79333 10.98C8.91887 10.8545 9.08913 10.7839 9.26667 10.7839C9.4442 10.7839 9.61446 10.8545 9.74 10.98C9.86554 11.1055 9.93606 11.2758 9.93606 11.4533C9.93606 11.6309 9.86554 11.8011 9.74 11.9267L7.15333 14.5133C6.99974 14.6663 6.87786 14.8481 6.7947 15.0483C6.71154 15.2486 6.66873 15.4632 6.66873 15.68C6.66873 15.8968 6.71154 16.1114 6.7947 16.3117C6.87786 16.5119 6.99974 16.6937 7.15333 16.8467C7.46651 17.1489 7.88476 17.3178 8.32 17.3178C8.75524 17.3178 9.17349 17.1489 9.48667 16.8467ZM15.6833 5.33653C16.474 5.33653 17.2325 5.64934 17.7933 6.20667C18.3507 6.76748 18.6635 7.52602 18.6635 8.31667C18.6635 9.10732 18.3507 9.86585 17.7933 10.4267L15.2067 13.02C15.1447 13.0825 15.071 13.1321 14.9897 13.1659C14.9085 13.1998 14.8213 13.2172 14.7333 13.2172C14.6453 13.2172 14.5582 13.1998 14.4769 13.1659C14.3957 13.1321 14.322 13.0825 14.26 13.02C14.1975 12.958 14.1479 12.8843 14.1141 12.8031C14.0802 12.7218 14.0628 12.6347 14.0628 12.5467C14.0628 12.4587 14.0802 12.3715 14.1141 12.2903C14.1479 12.209 14.1975 12.1353 14.26 12.0733L16.8467 9.48667C17.0003 9.33367 17.1221 9.15186 17.2053 8.95165C17.2885 8.75145 17.3313 8.53679 17.3313 8.32C17.3313 8.10321 17.2885 7.88855 17.2053 7.68835C17.1221 7.48814 17.0003 7.30632 16.8467 7.15333C16.5335 6.85108 16.1152 6.68217 15.68 6.68217C15.2448 6.68217 14.8265 6.85108 14.5133 7.15333L11.9267 9.74C11.8645 9.80216 11.7907 9.85147 11.7095 9.88511C11.6283 9.91875 11.5412 9.93606 11.4533 9.93606C11.3654 9.93606 11.2784 9.91875 11.1972 9.88511C11.116 9.85147 11.0422 9.80216 10.98 9.74C10.9178 9.67784 10.8685 9.60405 10.8349 9.52283C10.8013 9.44162 10.7839 9.35457 10.7839 9.26667C10.7839 9.17876 10.8013 9.09171 10.8349 9.0105C10.8685 8.92929 10.9178 8.85549 10.98 8.79333L13.5733 6.20667C14.1341 5.64934 14.8927 5.33653 15.6833 5.33653ZM10.1041 14.2572C10.0228 14.224 9.94896 14.1751 9.88667 14.1133C9.82418 14.0514 9.77458 13.9776 9.74074 13.8964C9.70689 13.8151 9.68947 13.728 9.68947 13.64C9.68947 13.552 9.70689 13.4649 9.74074 13.3836C9.77458 13.3024 9.82418 13.2286 9.88667 13.1667L13.1667 9.88667C13.2922 9.76113 13.4625 9.69061 13.64 9.69061C13.8175 9.69061 13.9878 9.76113 14.1133 9.88667C14.2389 10.0122 14.3094 10.1825 14.3094 10.36C14.3094 10.5375 14.2389 10.7078 14.1133 10.8333L10.8333 14.1133C10.771 14.1751 10.6972 14.224 10.6159 14.2572C10.5347 14.2904 10.4477 14.3072 10.36 14.3067C10.2723 14.3072 10.1853 14.2904 10.1041 14.2572Z" fill="#0A0B1A" fill-opacity="0.8"/>
</g>
<defs>
<clipPath id="clip0_1045_923">
<rect width="24" height="24" fill="white"/>
</clipPath>
</defs>
</svg>
