<svg width="36" height="36" viewBox="0 0 36 36" fill="none" xmlns="http://www.w3.org/2000/svg">
<circle cx="18" cy="18" r="18" fill="black"/>
<path fill-rule="evenodd" clip-rule="evenodd" d="M25.6075 12.0578C25.4921 12.1089 25.3675 12.1353 25.2416 12.1355H6.46033C6.37075 12.1354 6.28313 12.1089 6.2082 12.0591C6.13327 12.0094 6.07428 11.9386 6.03845 11.8554C6.00262 11.7722 5.99151 11.6803 6.00647 11.5908C6.02144 11.5013 6.06183 11.4181 6.12271 11.3516L10.0802 7.04689C10.1659 6.95339 10.2697 6.87878 10.3851 6.82772C10.5005 6.77666 10.625 6.75023 10.751 6.7501H29.5322C29.6226 6.74821 29.7115 6.77345 29.7878 6.82265C29.864 6.87186 29.9244 6.94282 29.9608 7.02662C29.9975 7.11041 30.0087 7.2033 29.9933 7.29358C29.9778 7.38386 29.9365 7.46751 29.8743 7.534L25.9124 11.8387C25.8267 11.9322 25.7229 12.0068 25.6075 12.0578ZM25.9124 15.228C25.8263 15.135 25.7225 15.0606 25.6072 15.0096C25.4918 14.9586 25.3674 14.9319 25.2416 14.9313H6.46033C6.37075 14.9313 6.28313 14.9578 6.2082 15.0076C6.13327 15.0573 6.07428 15.1281 6.03845 15.2113C6.00262 15.2945 5.99151 15.3864 6.00647 15.4759C6.02144 15.5654 6.06183 15.6486 6.12271 15.7152L10.0802 20.0221C10.1662 20.1152 10.2701 20.1895 10.3854 20.2405C10.5007 20.2915 10.6251 20.3182 10.751 20.3189H29.5322C29.6217 20.3184 29.7089 20.2915 29.7835 20.2417C29.8582 20.1917 29.9168 20.1209 29.9523 20.0378C29.9879 19.9547 29.9989 19.8629 29.9836 19.7736C29.9687 19.6843 29.9284 19.6014 29.8676 19.535L25.9124 15.228ZM29.8743 23.8985L25.9124 28.2032C25.8267 28.2967 25.7229 28.3713 25.6075 28.4224C25.4921 28.4734 25.3675 28.4999 25.2416 28.5H6.46033C6.37075 28.5 6.28313 28.4734 6.2082 28.4237C6.13327 28.374 6.07428 28.3032 6.03845 28.22C6.00262 28.1368 5.99151 28.0448 6.00647 27.9553C6.02144 27.8658 6.06183 27.7827 6.12271 27.7161L10.0802 23.4114C10.1659 23.3179 10.2697 23.2433 10.3851 23.1922C10.5005 23.1412 10.625 23.1148 10.751 23.1146H29.5322C29.6226 23.1127 29.7115 23.138 29.7878 23.1872C29.864 23.2364 29.9244 23.3074 29.9608 23.3911C29.9975 23.475 30.0087 23.5678 29.9933 23.6581C29.9778 23.7484 29.9365 23.8321 29.8743 23.8985Z" fill="url(#paint0_linear_47_2788)"/>
<defs>
<linearGradient id="paint0_linear_47_2788" x1="20.4379" y1="37.9425" x2="37.8112" y2="13.7768" gradientUnits="userSpaceOnUse">
<stop offset="0.08" stop-color="#9945FF"/>
<stop offset="0.3" stop-color="#8752F3"/>
<stop offset="0.5" stop-color="#5497D5"/>
<stop offset="0.6" stop-color="#43B4CA"/>
<stop offset="0.72" stop-color="#28E0B9"/>
<stop offset="0.97" stop-color="#19FB9B"/>
</linearGradient>
</defs>
</svg>
