<svg width="36" height="36" viewBox="0 0 36 36" fill="none" xmlns="http://www.w3.org/2000/svg">
<g clip-path="url(#clip0_1110_3405)">
<path d="M18 36C27.9411 36 36 27.9411 36 18C36 8.05887 27.9411 0 18 0C8.05887 0 0 8.05887 0 18C0 27.9411 8.05887 36 18 36Z" fill="#6FBCF0"/>
<path fill-rule="evenodd" clip-rule="evenodd" d="M9.36031 27.3691C11.1636 30.4929 14.3937 32.3575 18.0004 32.3575C21.6071 32.3575 24.8365 30.4929 26.6405 27.3691C28.4439 24.2458 28.4439 20.5165 26.6405 17.3927L19.0413 4.23087C18.5787 3.42955 17.4221 3.42955 16.9595 4.23087L9.36031 17.3927C7.55698 20.5159 7.55698 24.2453 9.36031 27.3691ZM15.8597 10.4925L17.4799 7.68622C17.7112 7.28555 18.2895 7.28555 18.5209 7.68622L24.7539 18.4823C25.8991 20.4658 26.114 22.7613 25.3987 24.8619C25.3243 24.5192 25.2202 24.1685 25.0799 23.8143C24.2189 21.6416 22.2722 19.9649 19.2927 18.8306C17.2442 18.0536 15.9367 16.9108 15.4053 15.4337C14.721 13.53 15.4358 11.454 15.8597 10.4925ZM13.097 15.2778L11.2469 18.4823C9.83711 20.9241 9.83711 23.8389 11.2469 26.2806C12.6566 28.7224 15.1809 30.1795 18.0004 30.1795C19.873 30.1795 21.616 29.5361 22.9884 28.3885C23.1674 27.9379 23.7216 26.2885 23.0368 24.5884C22.4044 23.0185 20.8824 21.7653 18.5128 20.8627C15.8343 19.8466 14.0941 18.2604 13.3416 16.1495C13.238 15.8589 13.1574 15.5676 13.097 15.2778Z" fill="white"/>
</g>
<defs>
<clipPath id="clip0_1110_3405">
<rect width="36" height="36" fill="white"/>
</clipPath>
</defs>
</svg>
