<svg width="24" height="24" viewBox="0 0 24 24" fill="none" xmlns="http://www.w3.org/2000/svg">
<path d="M7.54752 21.7503C16.6042 21.7503 21.5578 14.2469 21.5578 7.74003C21.5578 7.52691 21.5578 7.31475 21.5434 7.10355C22.507 6.40651 23.3389 5.54344 24 4.55475C23.1014 4.95315 22.148 5.21431 21.1718 5.32947C22.1998 4.71416 22.9692 3.74625 23.3366 2.60595C22.3701 3.17956 21.3126 3.58378 20.2099 3.80115C19.4675 3.01173 18.4856 2.48899 17.4162 2.31384C16.3468 2.13868 15.2494 2.32087 14.294 2.8322C13.3385 3.34354 12.5782 4.15553 12.1307 5.1425C11.6833 6.12947 11.5735 7.23642 11.8186 8.29203C9.86089 8.19383 7.94576 7.68506 6.19745 6.79876C4.44915 5.91245 2.90676 4.66841 1.6704 3.14739C1.04073 4.23139 0.847872 5.51462 1.1311 6.73581C1.41433 7.95701 2.15234 9.02435 3.19488 9.72051C2.41123 9.69755 1.64465 9.48615 0.96 9.10419V9.16659C0.960311 10.3034 1.35385 11.4052 2.07387 12.285C2.79389 13.1647 3.79606 13.7684 4.9104 13.9935C4.18548 14.1912 3.42487 14.2201 2.68704 14.078C3.00181 15.0563 3.61443 15.9118 4.43924 16.5249C5.26405 17.138 6.25983 17.478 7.28736 17.4975C6.26644 18.2999 5.09731 18.8933 3.84687 19.2435C2.59643 19.5937 1.28921 19.6939 0 19.5384C2.25183 20.9834 4.87192 21.7499 7.54752 21.7464" fill="#0A0B1A" fill-opacity="0.8"/>
</svg>
