<svg width="55" height="68" viewBox="0 0 55 68" fill="none" xmlns="http://www.w3.org/2000/svg">
<path d="M52.3333 6C51.6666 5.33333 50.6666 5 49.6666 5.33333C42.3333 7 34.9999 5.33333 28.9999 1C27.9999 0.333333 26.3333 0.333333 25.3333 1C18.9999 5.33333 11.6666 7 4.33325 5.33333C2.66658 5 0.666585 6.33333 0.333252 8C0.333252 8.33333 0.333252 8.33333 0.333252 8.66667V33.6667C0.333252 43.3333 4.99992 52.3333 12.9999 58L25.3333 66.6667C26.3333 67.3333 27.9999 67.3333 29.3333 66.6667L41.6666 58C49.6666 52.3333 54.3333 43.3333 54.3333 33.6667V8.66667C53.6666 7.66667 53.3333 6.66667 52.3333 6ZM33.6666 37.3333H30.3333V40.6667C30.3333 42.6667 28.9999 44 26.9999 44C24.9999 44 23.6666 42.6667 23.6666 40.6667V37.3333H20.3333C18.3333 37.3333 16.9999 36 16.9999 34C16.9999 32 18.3333 30.6667 20.3333 30.6667H23.6666V27.3333C23.6666 25.3333 24.9999 24 26.9999 24C28.9999 24 30.3333 25.3333 30.3333 27.3333V30.6667H33.6666C35.6666 30.6667 36.9999 32 36.9999 34C36.9999 36 35.6666 37.3333 33.6666 37.3333Z" fill="#FFA700" fill-opacity="0.6"/>
</svg>
