<svg width="80" height="80" viewBox="0 0 80 80" fill="none" xmlns="http://www.w3.org/2000/svg">
<path d="M65.3333 12C64.6666 11.3333 63.6666 11 62.6666 11.3333C55.3333 13 47.9999 11.3333 41.9999 7C40.9999 6.33333 39.3333 6.33333 38.3333 7C31.9999 11.3333 24.6666 13 17.3333 11.3333C15.6666 11 13.6666 12.3333 13.3333 14C13.3333 14.3333 13.3333 14.3333 13.3333 14.6667V39.6667C13.3333 49.3333 17.9999 58.3333 25.9999 64L38.3333 72.6667C39.3333 73.3333 40.9999 73.3333 42.3333 72.6667L54.6666 64C62.6666 58.3333 67.3333 49.3333 67.3333 39.6667V14.6667C66.6666 13.6667 66.3333 12.6667 65.3333 12ZM46.6666 43.3333H43.3333V46.6667C43.3333 48.6667 41.9999 50 39.9999 50C37.9999 50 36.6666 48.6667 36.6666 46.6667V43.3333H33.3333C31.3333 43.3333 29.9999 42 29.9999 40C29.9999 38 31.3333 36.6667 33.3333 36.6667H36.6666V33.3333C36.6666 31.3333 37.9999 30 39.9999 30C41.9999 30 43.3333 31.3333 43.3333 33.3333V36.6667H46.6666C48.6666 36.6667 49.9999 38 49.9999 40C49.9999 42 48.6666 43.3333 46.6666 43.3333Z" fill="#FFA700" fill-opacity="0.6"/>
</svg>
