<svg width="30" height="30" viewBox="0 0 30 30" fill="none" xmlns="http://www.w3.org/2000/svg">
<path d="M12.8893 6.36768H6.05138C4.91843 6.36768 4 7.28611 4 8.41906V17.3084C4 18.4413 4.91843 19.3597 6.05138 19.3597H12.8893C14.0223 19.3597 14.9407 18.4413 14.9407 17.3084V8.41906C14.9407 7.28611 14.0223 6.36768 12.8893 6.36768Z" fill="#EBEAE2"/>
<path d="M8.78575 8.91895H21.7778C22.6346 8.91895 23.3292 9.61352 23.3292 10.4703V22.0948C23.3292 22.9516 22.6346 23.6462 21.7778 23.6462H8.78575C7.92895 23.6462 7.23438 22.9516 7.23438 22.0948V10.4703C7.23438 9.61352 7.92895 8.91895 8.78575 8.91895Z" fill="url(#paint0_linear_357_509)" stroke="#56F09F"/>
<path d="M22.4625 5H18.3598C17.6045 5 16.9922 5.61229 16.9922 6.36759V9.78655C16.9922 10.5418 17.6045 11.1541 18.3598 11.1541H22.4625C23.2178 11.1541 23.8301 10.5418 23.8301 9.78655V6.36759C23.8301 5.61229 23.2178 5 22.4625 5Z" stroke="#C5C4B4" stroke-dasharray="1 1"/>
<path d="M9.47035 18.6758H5.36759C4.61229 18.6758 4 19.2881 4 20.0434V23.4623C4 24.2176 4.61229 24.8299 5.36759 24.8299H9.47035C10.2256 24.8299 10.8379 24.2176 10.8379 23.4623V20.0434C10.8379 19.2881 10.2256 18.6758 9.47035 18.6758Z" stroke="#C5C4B4" stroke-dasharray="1 1"/>
<path d="M13.9148 5.3418H4.68359" stroke="#C5C4B4" stroke-dasharray="1 1"/>
<path d="M14.2575 10.4705H10.1547C9.3994 10.4705 8.78711 11.0827 8.78711 11.838V15.257C8.78711 16.0123 9.3994 16.6246 10.1547 16.6246H14.2575C15.0128 16.6246 15.625 16.0123 15.625 15.257V11.838C15.625 11.0827 15.0128 10.4705 14.2575 10.4705Z" fill="#56F09F"/>
<path d="M21.0954 17.9922H9.4709C9.09325 17.9922 8.78711 18.2983 8.78711 18.676C8.78711 19.0536 9.09325 19.3598 9.4709 19.3598H21.0954C21.473 19.3598 21.7792 19.0536 21.7792 18.676C21.7792 18.2983 21.473 17.9922 21.0954 17.9922Z" fill="#56F09F"/>
<path d="M21.0954 20.7273H9.4709C9.09325 20.7273 8.78711 21.0334 8.78711 21.4111C8.78711 21.7887 9.09325 22.0949 9.4709 22.0949H21.0954C21.473 22.0949 21.7792 21.7887 21.7792 21.4111C21.7792 21.0334 21.473 20.7273 21.0954 20.7273Z" fill="#56F09F"/>
<defs>
<linearGradient id="paint0_linear_357_509" x1="15.2818" y1="8.41895" x2="15.2818" y2="24.1462" gradientUnits="userSpaceOnUse">
<stop stop-color="#56F09F"/>
<stop offset="1" stop-color="#56F09F" stop-opacity="0"/>
</linearGradient>
</defs>
</svg>
