<svg width="24" height="24" viewBox="0 0 24 24" fill="none" xmlns="http://www.w3.org/2000/svg">
<path fill-rule="evenodd" clip-rule="evenodd" d="M0 12C0 5.37258 5.37258 0 12 0C18.6274 0 24 5.37258 24 12C24 18.6274 18.6274 24 12 24C5.37258 24 0 18.6274 0 12ZM15.1212 9.6428C15.202 9.6428 15.282 9.6436 15.3616 9.648C14.9408 7.3548 12.5724 5.6 9.714 5.6C6.558 5.6 4 7.7396 4 10.3788C4 11.9264 4.8792 13.302 6.2428 14.1752L6.2952 14.2084L5.7432 15.9376L7.8088 14.8856C7.8088 14.8856 7.8736 14.904 7.906 14.9136C8.4736 15.0716 9.0824 15.1572 9.714 15.1572C9.8428 15.1572 9.9708 15.152 10.098 15.1456C9.9808 14.782 9.9164 14.4 9.9164 14.0056C9.9164 11.5956 12.2476 9.6428 15.1212 9.6428ZM15.1648 18.0712C12.4984 18.0712 10.3364 16.2636 10.3364 14.0336C10.3364 11.8044 12.4984 9.99684 15.1648 9.99684C17.83 9.99684 19.9912 11.8044 19.9912 14.0336C19.9912 15.3416 19.248 16.5036 18.0964 17.2412L18.052 17.2688L18.5184 18.7304L16.774 17.8408C16.774 17.8408 16.7192 17.8572 16.6916 17.8644C16.2124 17.9984 15.698 18.0712 15.1648 18.0712Z" fill="#0A0B1A" fill-opacity="0.8"/>
<path d="M11.7024 7.95605C12.1456 7.95605 12.5044 8.30325 12.5044 8.73245C12.5044 9.16125 12.1456 9.50965 11.7024 9.50965C11.2588 9.50965 10.9004 9.16125 10.9004 8.73245C10.9004 8.30325 11.2588 7.95605 11.7024 7.95605" fill="#0A0B1A" fill-opacity="0.8"/>
<path d="M16.166 12.6429C16.166 12.2813 16.4692 11.9873 16.8436 11.9873C17.2184 11.9873 17.5216 12.2813 17.5216 12.6429C17.5216 13.0061 17.2184 13.3005 16.8436 13.3005C16.4692 13.3005 16.166 13.0061 16.166 12.6429" fill="#0A0B1A" fill-opacity="0.8"/>
<path d="M12.8066 12.6429C12.8066 12.2813 13.1106 11.9873 13.4846 11.9873C13.8594 11.9873 14.163 12.2813 14.163 12.6429C14.163 13.0061 13.8594 13.3005 13.4846 13.3005C13.1106 13.3005 12.8066 13.0061 12.8066 12.6429" fill="#0A0B1A" fill-opacity="0.8"/>
<path d="M7.72525 9.50965C7.28205 9.50965 6.92285 9.16125 6.92285 8.73245C6.92285 8.30325 7.28205 7.95605 7.72525 7.95605C8.16845 7.95605 8.52845 8.30325 8.52845 8.73245C8.52845 9.16125 8.16845 9.50965 7.72525 9.50965" fill="#0A0B1A" fill-opacity="0.8"/>
</svg>
