<svg width="30" height="30" viewBox="0 0 30 30" fill="none" xmlns="http://www.w3.org/2000/svg">
<rect x="0.5" y="0.5" width="29" height="29" rx="14.5" stroke="url(#paint0_linear_918_462)"/>
<path fill-rule="evenodd" clip-rule="evenodd" d="M20.1953 10.6098C20.7687 10.7638 21.2223 11.2174 21.3763 11.7908C21.6588 12.8349 21.6673 15 21.6673 15C21.6673 15 21.6673 17.1738 21.3849 18.2093C21.2309 18.7827 20.7773 19.2362 20.2039 19.3903C19.1684 19.6727 15.0007 19.6727 15.0007 19.6727C15.0007 19.6727 10.8329 19.6727 9.7974 19.3903C9.22401 19.2362 8.77044 18.7827 8.6164 18.2093C8.33398 17.1652 8.33398 15 8.33398 15C8.33398 15 8.33398 12.8349 8.60784 11.7994C8.76188 11.226 9.21546 10.7724 9.78884 10.6184C10.8244 10.3359 14.9921 10.3274 14.9921 10.3274C14.9921 10.3274 19.1598 10.3274 20.1953 10.6098ZM17.123 15.0001L13.6656 17.0026V12.9975L17.123 15.0001Z" fill="#004737"/>
<defs>
<linearGradient id="paint0_linear_918_462" x1="0" y1="15" x2="30" y2="15" gradientUnits="userSpaceOnUse">
<stop stop-color="#56F09F"/>
<stop offset="1" stop-color="#A3FFE5"/>
</linearGradient>
</defs>
</svg>
