<svg width="16" height="16" viewBox="0 0 16 16" fill="none" xmlns="http://www.w3.org/2000/svg">
<path fill-rule="evenodd" clip-rule="evenodd" d="M13.1953 3.6098C13.7687 3.76385 14.2223 4.21742 14.3763 4.79081C14.6588 5.83488 14.6673 8.00005 14.6673 8.00005C14.6673 8.00005 14.6673 10.1738 14.3849 11.2093C14.2309 11.7827 13.7773 12.2362 13.2039 12.3903C12.1684 12.6727 8.00065 12.6727 8.00065 12.6727C8.00065 12.6727 3.83291 12.6727 2.7974 12.3903C2.22401 12.2362 1.77044 11.7827 1.6164 11.2093C1.33398 10.1652 1.33398 8.00005 1.33398 8.00005C1.33398 8.00005 1.33398 5.83488 1.60784 4.79937C1.76188 4.22598 2.21546 3.77241 2.78884 3.61837C3.82436 3.33595 7.99209 3.32739 7.99209 3.32739C7.99209 3.32739 12.1598 3.32739 13.1953 3.6098ZM10.123 8.00005L6.66561 10.0026V5.99748L10.123 8.00005Z" fill="#004737"/>
</svg>
